<svg width="121" height="121" viewBox="0 0 121 121" fill="none" xmlns="http://www.w3.org/2000/svg">
<g clip-path="url(#clip0_3_37)">
<g clip-path="url(#clip1_3_37)">
<g clip-path="url(#clip2_3_37)">
<path d="M73.8653 120.11C99.3554 120.11 120.019 99.4462 120.019 73.9562C120.019 48.4661 99.3554 27.8024 73.8653 27.8024C48.3753 27.8024 27.7115 48.4661 27.7115 73.9562C27.7115 99.4462 48.3753 120.11 73.8653 120.11Z" fill="#EDFCFE"/>
<path d="M1.75335 81.5764H6.95335V102.376C6.95335 103.333 7.72777 104.11 8.68669 104.11H26.02C26.9789 104.11 27.7533 103.333 27.7533 102.376V67.7097H43.3533C44.3123 67.7097 45.0867 66.9328 45.0867 65.9764V61.6431L63.4864 69.3093C63.7005 69.3999 63.9282 69.443 64.1533 69.443C64.4893 69.443 64.8262 69.344 65.1156 69.1519C65.5972 68.8294 65.8867 68.2886 65.8867 67.7097V39.9764C65.8867 39.3975 65.5972 38.8567 65.1156 38.5342C64.6332 38.2118 64.023 38.1534 63.4881 38.3768L43.0063 46.9097H36.42C35.4611 46.9097 34.6867 47.6867 34.6867 48.6431V57.3097H25.0839C26.7377 55.4672 27.7533 53.0424 27.7533 50.3764C27.7533 44.6407 23.0891 39.9764 17.3533 39.9764C11.6176 39.9764 6.95335 44.6407 6.95335 50.3764C6.95335 53.0424 7.96898 55.4672 9.62275 57.3097H8.68669C3.90817 57.3097 0.0200195 61.1979 0.0200195 65.9764V79.843C0.0200195 80.7994 0.794434 81.5764 1.75335 81.5764ZM62.42 65.1097L45.0867 57.8869V49.7975L62.42 42.5764V65.1097ZM38.1533 50.3764H41.62V57.3097H38.1533V50.3764ZM10.42 50.3764C10.42 46.5526 13.5295 43.4431 17.3533 43.4431C21.1772 43.4431 24.2867 46.5526 24.2867 50.3764C24.2867 54.2002 21.1772 57.3097 17.3533 57.3097C13.5295 57.3097 10.42 54.2002 10.42 50.3764ZM3.48669 65.9764C3.48669 63.1098 5.82008 60.7764 8.68669 60.7764H41.62V64.243H26.02C25.0611 64.243 24.2867 65.02 24.2867 65.9764V100.643H19.0867V79.843H15.62V100.643H10.42V65.9764H6.95335V78.1097H3.48669V65.9764Z" fill="#C1E7E2"/>
<path d="M104.021 26.1168C104.021 21.5862 100.516 17.8978 96.0837 17.5178C97.7772 15.6668 98.8208 13.2107 98.8208 10.51C98.8208 4.77424 94.1565 0.109985 88.4208 0.109985C82.685 0.109985 78.0208 4.77424 78.0208 10.51C78.0208 13.2107 79.0643 15.6668 80.7579 17.5178C76.3255 17.8978 72.8208 21.5862 72.8208 26.1168V29.5767C72.8208 30.533 73.5952 31.31 74.5541 31.31H102.287C103.246 31.31 104.021 30.533 104.021 29.5767V26.1168ZM88.4208 3.57666C92.2446 3.57666 95.3541 6.68616 95.3541 10.51C95.3541 14.3338 92.2446 17.4433 88.4208 17.4433C84.597 17.4433 81.4874 14.3338 81.4874 10.51C81.4874 6.68616 84.597 3.57666 88.4208 3.57666ZM100.554 27.8433H76.2874V26.1168C76.2874 23.2468 78.6242 20.91 81.4942 20.91H95.3473C98.2173 20.91 100.554 23.2468 100.554 26.1168V27.8433Z" fill="#C1E7E2"/>
<path d="M104.021 62.5172C104.021 57.9866 100.516 54.2982 96.0837 53.9182C97.7772 52.0672 98.8208 49.6111 98.8208 46.9104C98.8208 41.1746 94.1565 36.5104 88.4208 36.5104C82.685 36.5104 78.0208 41.1746 78.0208 46.9104C78.0208 49.6111 79.0643 52.0672 80.7579 53.9182C76.3255 54.2982 72.8208 57.9866 72.8208 62.5172V65.9771C72.8208 66.9334 73.5952 67.7104 74.5541 67.7104H102.287C103.246 67.7104 104.021 66.9334 104.021 65.9771V62.5172ZM88.4208 39.9771C92.2446 39.9771 95.3541 43.0866 95.3541 46.9104C95.3541 50.7342 92.2446 53.8437 88.4208 53.8437C84.597 53.8437 81.4874 50.7342 81.4874 46.9104C81.4874 43.0866 84.597 39.9771 88.4208 39.9771ZM100.554 64.2437H76.2874V62.5172C76.2874 59.6472 78.6242 57.3104 81.4942 57.3104H95.3473C98.2173 57.3104 100.554 59.6472 100.554 62.5172V64.2437Z" fill="#C1E7E2"/>
<path d="M104.021 98.9166C104.021 94.386 100.516 90.6976 96.0837 90.3176C97.7772 88.4666 98.8208 86.0105 98.8208 83.3098C98.8208 77.5741 94.1565 72.9098 88.4208 72.9098C82.685 72.9098 78.0208 77.5741 78.0208 83.3098C78.0208 86.0105 79.0643 88.4666 80.7579 90.3176C76.3255 90.6976 72.8208 94.386 72.8208 98.9166V102.376C72.8208 103.333 73.5952 104.11 74.5541 104.11H102.287C103.246 104.11 104.021 103.333 104.021 102.376V98.9166ZM88.4208 76.3765C92.2446 76.3765 95.3541 79.486 95.3541 83.3098C95.3541 87.1336 92.2446 90.2431 88.4208 90.2431C84.597 90.2431 81.4874 87.1336 81.4874 83.3098C81.4874 79.486 84.597 76.3765 88.4208 76.3765ZM100.554 100.643H76.2874V98.9166C76.2874 96.0466 78.6242 93.7098 81.4942 93.7098H95.3473C98.2173 93.7098 100.554 96.0466 100.554 98.9166V100.643Z" fill="#C1E7E2"/>
<path d="M23.6227 36.378C23.8377 36.4668 24.0628 36.51 24.2863 36.51C24.7365 36.51 25.1809 36.3331 25.5118 36.0022L37.1373 24.3767H55.4863C58.3529 24.3767 60.6863 22.0433 60.6863 19.1767V5.30999C60.6863 2.44339 58.3529 0.109985 55.4863 0.109985H20.8196C17.953 0.109985 15.6196 2.44339 15.6196 5.30999V19.1767C15.6196 22.0433 17.953 24.3767 20.8196 24.3767H22.5529V34.7767C22.5529 35.4766 22.9744 36.1097 23.6227 36.378ZM20.8196 20.91C19.8632 20.91 19.0863 20.1314 19.0863 19.1767V5.30999C19.0863 4.3553 19.8632 3.57666 20.8196 3.57666H55.4863C56.4427 3.57666 57.2196 4.3553 57.2196 5.30999V19.1767C57.2196 20.1314 56.4427 20.91 55.4863 20.91H36.4196C35.9583 20.91 35.5182 21.092 35.1941 21.4178L26.0196 30.5923V22.6433C26.0196 21.687 25.2452 20.91 24.2863 20.91H20.8196Z" fill="#C1E7E2"/>
<path d="M22.5532 7.04358H29.4865V10.5103H22.5532V7.04358Z" fill="#C1E7E2"/>
<path d="M22.5532 13.9762H32.9532V17.4429H22.5532V13.9762Z" fill="#C1E7E2"/>
<path d="M32.9536 7.04358H53.7536V10.5103H32.9536V7.04358Z" fill="#C1E7E2"/>
<path d="M36.4204 13.9762H39.8871V17.4429H36.4204V13.9762Z" fill="#C1E7E2"/>
<path d="M43.354 13.9762H46.8207V17.4429H43.354V13.9762Z" fill="#C1E7E2"/>
<path d="M50.2876 13.9762H53.7542V17.4429H50.2876V13.9762Z" fill="#C1E7E2"/>
</g>
</g>
</g>
<defs>
<clipPath id="clip0_3_37">
<rect width="120" height="120" fill="white" transform="translate(0.0200195 0.109985)"/>
</clipPath>
<clipPath id="clip1_3_37">
<rect width="120" height="120" fill="white" transform="translate(0.0200195 0.109985)"/>
</clipPath>
<clipPath id="clip2_3_37">
<rect width="120" height="120" fill="white" transform="translate(0.0200195 0.109985)"/>
</clipPath>
</defs>
</svg>
