<svg width="38" height="31" viewBox="0 0 38 31" fill="none" xmlns="http://www.w3.org/2000/svg">
<path d="M31.0705 17.5185C31.5844 16.6483 31.875 15.7202 31.875 14.5981C31.875 12.0191 29.6943 9.58369 26.8465 9.58369H24.709C24.9973 8.83311 25.2275 7.93545 25.2275 6.85674C25.2275 2.59147 23.0191 0.720215 19.6453 0.720215C16.0355 0.720215 16.2414 6.2827 15.4406 7.0835C14.1078 8.41633 12.5335 10.9769 11.4117 11.9702H5.625C4.58947 11.9702 3.75 12.8097 3.75 13.8452V27.9077C3.75 28.9432 4.58947 29.7827 5.625 29.7827H9.375C10.2476 29.7827 10.9809 29.1866 11.1901 28.3794C13.7981 28.438 15.5882 30.7196 21.6082 30.7196C22.0312 30.7196 22.5 30.7202 22.9102 30.7202C27.4287 30.7202 29.4718 28.4103 29.5277 25.1345C30.3081 24.0549 30.7171 22.6078 30.5438 21.2093C31.1211 20.1281 31.3444 18.8454 31.0705 17.5185ZM27.4523 20.6726C28.1883 21.9106 27.5262 23.5677 26.6355 24.0458C27.0867 26.904 25.6038 27.9071 23.523 27.9071H21.307C17.1094 27.9071 14.3913 25.6911 11.25 25.6911V14.7827H11.8898C13.5516 14.7827 15.873 10.629 17.4293 9.07217C19.091 7.41045 18.5373 4.64072 19.6453 3.53271C22.415 3.53271 22.415 5.46514 22.415 6.85674C22.415 9.15186 20.7533 10.1802 20.7533 12.3962H26.8465C28.0834 12.3962 29.0572 13.5042 29.0625 14.6122C29.0678 15.7196 28.3113 16.8276 27.7576 16.8276C28.548 17.6805 28.7169 19.4782 27.4523 20.6726ZM8.90625 26.0327C8.90625 26.8094 8.27666 27.439 7.5 27.439C6.72334 27.439 6.09375 26.8094 6.09375 26.0327C6.09375 25.2561 6.72334 24.6265 7.5 24.6265C8.27666 24.6265 8.90625 25.2561 8.90625 26.0327Z" fill="#C1E7E2"/>
</svg>
