<svg width="38" height="31" viewBox="0 0 38 31" fill="none" xmlns="http://www.w3.org/2000/svg">
<path d="M31.2675 0.720215H12.5175C10.9642 0.720215 9.70499 1.97939 9.70499 3.53271V6.34521H6.89249C5.33917 6.34521 4.07999 7.60439 4.07999 9.15771V27.9077C4.07999 29.461 5.33917 30.7202 6.89249 30.7202H25.6425C27.1958 30.7202 28.455 29.461 28.455 27.9077V25.0952H31.2675C32.8208 25.0952 34.08 23.836 34.08 22.2827V3.53271C34.08 1.97939 32.8208 0.720215 31.2675 0.720215ZM25.2909 27.9077H7.24405C7.15081 27.9077 7.06139 27.8707 6.99546 27.8047C6.92953 27.7388 6.89249 27.6494 6.89249 27.5562V9.50928C6.89249 9.41604 6.92953 9.32662 6.99546 9.26068C7.06139 9.19475 7.15081 9.15771 7.24405 9.15771H9.70499V22.2827C9.70499 23.836 10.9642 25.0952 12.5175 25.0952H25.6425V27.5562C25.6425 27.6494 25.6054 27.7388 25.5395 27.8047C25.4736 27.8707 25.3842 27.9077 25.2909 27.9077ZM30.9159 22.2827H12.869C12.7758 22.2827 12.6864 22.2457 12.6205 22.1797C12.5545 22.1138 12.5175 22.0244 12.5175 21.9312V3.88428C12.5175 3.79104 12.5545 3.70162 12.6205 3.63568C12.6864 3.56975 12.7758 3.53271 12.869 3.53271H30.9159C31.0092 3.53271 31.0986 3.56975 31.1645 3.63568C31.2304 3.70162 31.2675 3.79104 31.2675 3.88428V21.9312C31.2675 22.0244 31.2304 22.1138 31.1645 22.1797C31.0986 22.2457 31.0092 22.2827 30.9159 22.2827Z" fill="#C1E7E2"/>
</svg>
