<svg width="23" height="19" viewBox="0 0 23 19" fill="none" xmlns="http://www.w3.org/2000/svg">
<path d="M11.25 0.391113C6.43475 0.391113 2.53125 4.29462 2.53125 9.10986C2.53125 13.9251 6.43475 17.8286 11.25 17.8286C16.0652 17.8286 19.9688 13.9251 19.9688 9.10986C19.9688 4.29462 16.0652 0.391113 11.25 0.391113ZM11.25 2.07861C15.1359 2.07861 18.2812 5.22337 18.2812 9.10986C18.2812 12.9958 15.1365 16.1411 11.25 16.1411C7.36411 16.1411 4.21875 12.9964 4.21875 9.10986C4.21875 5.22397 7.36351 2.07861 11.25 2.07861ZM16.179 6.65831L15.3868 5.85963C15.2227 5.69422 14.9556 5.69313 14.7902 5.85724L9.82076 10.7867L7.7187 8.6676C7.55462 8.50219 7.2875 8.5011 7.12209 8.66517L6.32338 9.45745C6.15797 9.62153 6.15688 9.88864 6.32099 10.0541L9.51251 13.2714C9.67658 13.4369 9.9437 13.4379 10.1091 13.2738L16.1767 7.25495C16.3421 7.09084 16.3431 6.82372 16.179 6.65831Z" fill="#040447"/>
</svg>
