<svg width="65" height="57" viewBox="0 0 65 57" fill="none" xmlns="http://www.w3.org/2000/svg">
<g clip-path="url(#clip0_3_444)">
<g clip-path="url(#clip1_3_444)">
<g clip-path="url(#clip2_3_444)">
<path d="M0.01382 41.1039C0.01382 49.6496 6.94109 56.5769 15.4867 56.5769C24.0324 56.5769 30.9597 49.6496 30.9597 41.1039C30.9597 32.5581 24.0324 25.631 15.4867 25.631C13.7304 25.631 12.0493 25.9371 10.4755 26.4767C13.9575 6.50612 29.5307 -6.37262 15.0944 4.22684C-0.913246 15.9805 -0.00332423 40.631 0.0145876 41.0827C0.0145876 41.0898 0.01382 41.096 0.01382 41.1039Z" fill="#040447"/>
<path d="M34.0549 41.1039C34.0549 49.6496 40.9821 56.5769 49.5279 56.5769C58.0736 56.5769 65.0008 49.6496 65.0008 41.1039C65.0008 32.5581 58.0734 25.631 49.5277 25.631C47.7713 25.631 46.0903 25.9371 44.5165 26.4767C47.9986 6.50612 63.5717 -6.37262 49.1355 4.22684C33.1278 15.9805 34.0376 40.631 34.0556 41.0827C34.0556 41.0898 34.0549 41.096 34.0549 41.1039Z" fill="#040447"/>
</g>
</g>
</g>
<defs>
<clipPath id="clip0_3_444">
<rect width="65" height="57" fill="white"/>
</clipPath>
<clipPath id="clip1_3_444">
<rect width="65" height="57" fill="white"/>
</clipPath>
<clipPath id="clip2_3_444">
<rect width="65" height="57" fill="white"/>
</clipPath>
</defs>
</svg>
