<svg width="540" height="541" viewBox="0 0 540 541" fill="none" xmlns="http://www.w3.org/2000/svg">
<g clip-path="url(#clip0_3_255)">
<g clip-path="url(#clip1_3_255)">
<path d="M417.203 514.43L415.043 513.404C415.313 512.864 440.585 459.187 451.493 396.71C461.536 339.307 461.051 262.466 402.083 222.56C348.893 186.596 292.355 179.467 246.941 203.066C208.385 223.046 183.869 262.682 183.059 306.476C182.735 324.187 179.171 340.874 172.529 355.94L170.315 354.967C176.849 340.117 180.305 323.81 180.629 306.421C181.493 261.764 206.495 221.371 245.806 200.96C267.299 189.781 292.193 185.191 317.789 187.621C346.301 190.321 375.083 201.446 403.433 220.616C430.001 238.597 447.226 265.274 454.625 299.941C460.565 327.59 460.295 360.314 453.815 397.25C442.853 459.944 417.473 513.89 417.203 514.43Z" fill="#CCDDE2"/>
<path d="M90.0183 514.862C85.7523 511.515 62.4783 488.726 61.6143 468.152C61.2903 460.755 63.9363 454.436 69.3903 449.306C74.5203 444.555 82.6203 439.37 91.9623 433.43C101.25 427.49 111.78 420.795 122.364 412.64L123.822 414.53C113.13 422.738 102.6 429.488 93.2583 435.428C83.9703 441.368 75.9783 446.445 71.0103 451.088C66.0963 455.678 63.7203 461.348 64.0443 468.045C64.8543 487.7 87.4263 509.678 91.5303 512.918L90.0183 514.862Z" fill="#CCDDE2"/>
<path d="M370.871 290.114C369.035 288.44 367.848 286.226 367.361 283.796L369.738 283.364C370.115 285.308 371.088 287.036 372.491 288.386L370.871 290.114Z" fill="#CCDDE2"/>
<path d="M278.1 325.322C277.29 325.538 276.642 325.7 276.102 325.808C275.725 325.862 275.346 325.97 275.13 325.97H275.076L274.752 326.025L274.699 325.97C269.299 322.028 270.972 314.63 270.972 314.63C287.119 317.168 290.466 304.1 290.466 304.1C290.25 297.836 289.062 294.866 286.309 293.192C283.446 291.41 278.856 290.925 271.836 289.412L270.702 289.142C260.28 286.766 255.42 276.075 253.476 270.135C253.045 268.838 252.666 267.488 252.396 266.085C240.57 270.512 233.172 276.83 228.906 281.528C227.232 248.102 260.766 252.908 260.766 252.908C266.436 253.016 271.999 253.826 277.452 255.338C278.695 255.878 279.882 256.418 280.962 256.958C281.502 257.228 282.096 257.552 282.582 257.822C283.069 258.092 283.662 258.416 284.149 258.74C284.526 258.956 284.85 259.172 285.229 259.388C292.626 264.086 298.512 270.728 302.239 278.666C302.292 278.775 302.346 278.882 302.4 278.99C302.562 279.368 302.725 279.746 302.832 280.125C310.446 313.388 287.01 322.892 278.1 325.322Z" fill="#92D5CD"/>
<path d="M278.1 325.322C275.724 321.435 276.858 316.682 276.858 316.682C293.004 319.22 296.352 306.152 296.352 306.152C296.028 296.54 293.382 294.705 286.362 293.192C283.77 292.598 280.53 292.058 276.588 291.195C274.968 290.816 273.348 290.222 271.89 289.412C261.144 283.526 258.282 268.136 258.282 268.136C256.608 268.73 255.042 269.432 253.53 270.135C253.098 268.838 252.72 267.488 252.45 266.085C240.624 270.512 233.226 276.83 228.96 281.528C227.286 248.102 260.82 252.908 260.82 252.908C266.49 253.016 272.052 253.826 277.506 255.338C278.748 255.878 279.936 256.418 281.016 256.958C281.556 257.228 282.15 257.552 282.636 257.822C283.122 258.092 283.716 258.416 284.202 258.74C284.58 258.956 284.904 259.172 285.282 259.388C292.68 264.086 298.566 270.728 302.292 278.666C302.346 278.775 302.4 278.882 302.454 278.99C302.616 279.368 302.778 279.746 302.886 280.125C310.446 313.388 287.01 322.892 278.1 325.322Z" fill="#92D5CD"/>
<path d="M334.691 473.229C337.175 489.536 340.253 505.52 343.439 513.89H200.231C183.005 464.912 191.159 411.452 191.159 411.452L165.725 412.262C181.008 385.424 175.554 362.744 173.015 355.184C192.995 351.782 212.975 349.136 233.171 348.866C232.631 360.422 245.268 373.706 263.411 370.196C270.809 368.792 279.774 365.876 279.989 352.97L284.741 353.78C291.329 354.86 297.269 355.994 302.885 357.29C317.465 360.639 329.994 364.85 345.599 370.142C323.999 386.126 334.745 423.062 334.745 423.062L335.285 424.304L328.373 423.062C328.373 423.116 330.911 448.442 334.691 473.229Z" fill="#0B0B5F"/>
<path d="M186.138 117.314C200.423 117.314 212.004 105.733 212.004 91.4478C212.004 77.1624 200.423 65.5818 186.138 65.5818C171.853 65.5818 160.271 77.1624 160.271 91.4478C160.271 105.733 171.853 117.314 186.138 117.314Z" fill="#92D5CD"/>
<path d="M194.616 82.8075C194.238 81.9435 193.752 81.1875 193.158 80.4855C191.052 77.9475 187.38 77.4075 184.626 79.1895C182.844 80.3235 181.71 82.2135 181.602 84.3195C178.146 83.0775 174.312 84.8595 173.07 88.3155C172.314 90.4755 172.692 92.8515 174.042 94.6875C175.878 97.1175 179.064 98.6835 181.872 99.6015C183.384 100.088 184.896 100.412 186.462 100.574C187.272 100.682 191.754 101.276 192.186 100.574C194.94 96.2535 196.992 88.1535 194.616 82.8075Z" fill="white"/>
<path d="M142.613 83.0239C140.939 82.8078 139.211 82.6998 137.483 82.6458C135.648 82.7538 133.811 82.8618 131.975 83.0778C126.198 83.7258 120.473 85.1838 115.128 87.3978C112.698 88.3698 110.375 89.6118 108.161 90.9618C106.541 91.9338 105.029 93.0138 103.571 94.1478C102.491 92.5818 101.627 90.9078 100.979 89.1798C96.983 78.0018 102.815 65.7439 113.939 61.7479C125.063 57.7519 137.375 63.5839 141.371 74.7078C142.343 77.4078 142.775 80.2159 142.613 83.0239Z" fill="#92D5CD"/>
<path d="M131.975 83.0779C126.198 83.7259 120.474 85.1839 115.128 87.3979C114.804 86.5879 114.534 85.7779 114.48 85.5079C114.048 84.2659 113.724 83.0239 113.561 81.7279C113.238 79.2439 113.291 76.3279 114.425 74.1139C115.775 71.3599 119.124 70.2799 121.824 71.6299C123.551 72.4939 124.685 74.1679 124.848 76.0579C126.468 75.4099 128.304 75.5719 129.815 76.4899C132.084 77.8399 133.001 80.6479 131.975 83.0779Z" fill="white"/>
<path d="M108.163 90.9617C106.543 91.9337 105.031 93.0137 103.573 94.1477C102.601 94.9037 101.683 95.7137 100.765 96.5777C99.6306 97.6577 98.6046 98.8997 97.7406 100.25C96.9306 101.492 96.2286 102.788 95.6886 104.138C94.8246 106.244 94.1226 108.35 93.5826 110.564C92.5566 115.316 91.9626 120.121 91.7466 124.981C82.4046 120.338 78.6245 108.944 83.2685 99.6017C86.4545 93.2297 92.9345 89.2337 100.009 89.1257C100.333 89.1257 100.657 89.1257 100.981 89.1257C103.465 89.2877 105.895 89.9357 108.163 90.9617Z" fill="#92D5CD"/>
<path d="M97.7407 100.25C96.9307 101.492 96.2287 102.788 95.6887 104.138C94.8247 106.244 94.1227 108.35 93.5827 110.564C92.4487 108.998 91.4767 107.108 91.3687 105.272C91.1527 102.572 93.1507 100.196 95.8507 99.9802C95.9587 99.9802 96.0667 99.9802 96.2287 99.9802C96.7687 99.9802 97.2547 100.088 97.7407 100.25Z" fill="white"/>
<g opacity="0.72">
<path opacity="0.72" d="M215.999 88.2071C223.873 88.2071 230.255 81.8244 230.255 73.9511C230.255 66.0777 223.873 59.6951 215.999 59.6951C208.126 59.6951 201.744 66.0777 201.744 73.9511C201.744 81.8244 208.126 88.2071 215.999 88.2071Z" fill="#92D5CD"/>
<path opacity="0.72" d="M222.209 76.4886C222.533 76.1106 222.856 75.7326 223.073 75.2466C223.936 73.6266 223.45 71.6826 221.939 70.6566C220.966 70.0086 219.779 69.8466 218.699 70.1706C218.645 68.1186 216.916 66.5526 214.865 66.6066C213.623 66.6606 212.435 67.3626 211.786 68.4426C210.923 69.9006 210.815 71.8446 210.923 73.4646C210.976 74.3286 211.139 75.1926 211.409 76.0026C211.516 76.4346 212.165 78.8646 212.596 78.9186C215.405 79.4586 219.94 78.8106 222.209 76.4886Z" fill="white"/>
</g>
<g opacity="0.72">
<path opacity="0.72" d="M209.684 233.306C215.29 233.306 219.835 228.761 219.835 223.154C219.835 217.547 215.29 213.002 209.684 213.002C204.076 213.002 199.531 217.547 199.531 223.154C199.531 228.761 204.076 233.306 209.684 233.306Z" fill="#92D5CD"/>
<path opacity="0.72" d="M214.056 224.991C214.326 224.721 214.542 224.451 214.65 224.127C215.245 222.992 214.92 221.589 213.84 220.832C213.139 220.347 212.275 220.239 211.519 220.509C211.465 219.051 210.222 217.917 208.765 217.971C207.846 218.025 207.036 218.511 206.605 219.267C206.065 220.401 205.849 221.642 206.01 222.885C206.065 223.479 206.172 224.127 206.335 224.721C206.442 224.991 206.875 226.772 207.199 226.827C209.25 227.097 212.49 226.611 214.056 224.991Z" fill="white"/>
</g>
<path d="M180.306 115.477L187.056 101.168C189.486 95.9836 195.696 93.7696 200.881 96.1996L215.191 102.95C220.375 105.38 222.589 111.59 220.159 116.774L213.409 131.084C210.979 136.267 204.769 138.481 199.585 136.051L185.275 129.301C180.036 126.871 177.822 120.661 180.306 115.477Z" fill="#92D5CD"/>
<path d="M216.325 119.312L211.411 129.68C209.251 134.162 203.905 136.106 199.37 134L186.95 128.115C182.467 125.955 180.524 120.609 182.63 116.072L182.954 115.37C186.301 112.67 192.187 109.052 194.294 113.966C197.371 121.095 201.367 118.772 206.444 115.802C210.764 113.319 215.84 112.509 216.325 119.312Z" fill="white"/>
<path d="M197.045 108.295C199.163 108.295 200.88 106.579 200.88 104.461C200.88 102.344 199.163 100.627 197.045 100.627C194.928 100.627 193.211 102.344 193.211 104.461C193.211 106.579 194.928 108.295 197.045 108.295Z" fill="white"/>
<path d="M225.34 166.777L234.25 147.932C237.49 141.074 245.645 138.157 252.449 141.397L271.295 150.307C278.153 153.547 281.069 161.702 277.829 168.506L268.919 187.352C265.679 194.21 257.525 197.126 250.72 193.886L231.875 184.976C225.016 181.736 222.1 173.582 225.34 166.777Z" fill="#92D5CD"/>
<path d="M272.755 171.854L266.275 185.461C263.467 191.401 256.392 193.94 250.452 191.131L234.091 183.41C228.151 180.601 225.612 173.527 228.421 167.587L228.852 166.67C233.281 163.105 241.002 158.354 243.757 164.834C247.807 174.23 253.045 171.205 259.741 167.264C265.411 163.97 272.161 162.835 272.755 171.854Z" fill="white"/>
<path d="M247.429 157.328C250.202 157.328 252.451 155.08 252.451 152.306C252.451 149.532 250.202 147.285 247.429 147.285C244.655 147.285 242.406 149.532 242.406 152.306C242.406 155.08 244.655 157.328 247.429 157.328Z" fill="white"/>
<path d="M270.865 94.2561C271.621 95.6601 272.161 97.1181 272.485 98.6301C273.674 104.408 271.73 110.348 267.355 114.29C265.681 115.802 263.521 116.936 261.794 118.502C260.551 119.582 259.634 120.986 259.147 122.552C259.04 123.092 258.824 123.579 258.5 124.064C257.474 125.144 256.501 123.47 255.637 123.146C254.234 122.714 252.721 122.769 251.371 123.362C242.894 126.872 233.174 122.822 229.717 114.344C227.18 108.242 228.53 101.222 233.12 96.4701C235.765 93.7701 239.221 92.0421 242.57 90.3141C245.54 88.7481 248.455 87.0741 251.641 86.1561C259.201 83.8881 267.247 87.6141 270.865 94.2561Z" fill="#92D5CD"/>
<path d="M240.679 113.804C242.676 113.804 244.296 112.184 244.296 110.186C244.296 108.187 242.676 106.568 240.679 106.568C238.68 106.568 237.06 108.187 237.06 110.186C237.06 112.184 238.68 113.804 240.679 113.804Z" fill="white"/>
<path d="M250.344 108.62C252.342 108.62 253.962 107 253.962 105.002C253.962 103.004 252.342 101.384 250.344 101.384C248.346 101.384 246.726 103.004 246.726 105.002C246.726 107 248.346 108.62 250.344 108.62Z" fill="white"/>
<path d="M259.47 103.706C261.468 103.706 263.088 102.086 263.088 100.088C263.088 98.0898 261.468 96.47 259.47 96.47C257.471 96.47 255.851 98.0898 255.851 100.088C255.851 102.086 257.471 103.706 259.47 103.706Z" fill="white"/>
<path d="M382.7 336.824V336.932L381.35 367.604L380.594 384.398C380.594 383.75 380.647 383.156 380.647 382.508C371.414 379.43 359.587 375.056 350.461 371.924C332.48 365.768 318.925 361.07 302.834 357.344C301.861 352.646 300.944 342.602 305.48 327.914C311.96 306.962 314.119 285.686 310.771 281.582C310.717 281.528 310.717 281.474 310.664 281.474C308.341 272.996 302.131 278.504 302.131 278.504L302.185 278.612C300.889 276.452 299.485 274.4 297.92 272.456C297.974 272.132 298.027 271.862 298.19 271.538C300.187 265.544 310.771 264.086 310.771 264.086C326.324 265.22 334.477 272.186 338.635 281.258C342.254 292.76 340.147 305.18 339.661 317.006C339.5 322.136 338.744 329.966 342.631 334.124C346.25 340.928 355.321 338.012 357.751 337.256C358.561 337.04 360.614 336.878 363.367 336.824C368.93 336.716 377.084 336.77 382.051 336.878C382.267 336.824 382.484 336.824 382.7 336.824Z" fill="#92D5CD"/>
<path d="M167.615 61.208C166.481 61.478 165.348 61.532 164.159 61.478C159.839 61.154 156.005 58.562 154.115 54.674C153.413 53.162 153.035 51.38 152.225 49.868C151.739 48.788 150.929 47.816 149.903 47.168C149.525 47.006 149.201 46.736 148.985 46.412C148.445 45.494 149.849 45.116 150.228 44.576C150.821 43.658 151.091 42.578 150.929 41.498C150.173 34.802 154.979 28.7 161.675 27.944C166.535 27.404 171.288 29.78 173.718 34.046C175.068 36.476 175.608 39.284 176.148 41.984C176.633 44.36 177.228 46.79 177.228 49.274C177.335 55.106 173.069 59.966 167.615 61.208Z" fill="#92D5CD"/>
<path d="M162.487 39.2299C163.948 39.2299 165.132 38.0453 165.132 36.5839C165.132 35.1226 163.948 33.938 162.487 33.938C161.025 33.938 159.841 35.1226 159.841 36.5839C159.841 38.0453 161.025 39.2299 162.487 39.2299Z" fill="white"/>
<path d="M164.215 47.168C165.676 47.168 166.861 45.9833 166.861 44.522C166.861 43.0606 165.676 41.876 164.215 41.876C162.753 41.876 161.569 43.0606 161.569 44.522C161.569 45.9833 162.753 47.168 164.215 47.168Z" fill="white"/>
<path d="M165.78 54.6191C167.241 54.6191 168.425 53.4345 168.425 51.9731C168.425 50.5119 167.241 49.3271 165.78 49.3271C164.318 49.3271 163.134 50.5119 163.134 51.9731C163.134 53.4345 164.318 54.6191 165.78 54.6191Z" fill="white"/>
<g opacity="0.72">
<path opacity="0.72" d="M325.726 157.598C336.851 157.598 345.869 148.58 345.869 137.456C345.869 126.331 336.851 117.314 325.726 117.314C314.603 117.314 305.585 126.331 305.585 137.456C305.585 148.58 314.603 157.598 325.726 157.598Z" fill="#92D5CD"/>
<path opacity="0.72" d="M326.483 146.852C327.184 147.069 327.886 147.176 328.589 147.176C331.126 147.23 333.34 145.34 333.719 142.802C333.934 141.182 333.394 139.562 332.206 138.375C334.744 136.97 335.609 133.785 334.204 131.3C333.34 129.735 331.72 128.709 329.939 128.655C327.563 128.546 325.024 129.572 323.026 130.76C322 131.409 321.029 132.165 320.11 132.975C319.679 133.406 316.979 135.729 317.194 136.322C318.383 140.21 322.109 145.502 326.483 146.852Z" fill="white"/>
</g>
<path d="M335.07 219.698C333.829 221.534 332.316 223.154 330.535 224.558C324 229.742 315.252 231.038 307.476 228.122C304.506 226.934 301.645 224.936 298.566 223.802C296.406 222.938 294.03 222.668 291.709 223.046C290.952 223.262 290.196 223.316 289.44 223.208C287.442 222.614 288.955 220.292 288.792 218.996C288.469 216.944 287.389 215.108 285.822 213.758C275.94 205.334 274.806 190.484 283.23 180.602C289.386 173.42 299.215 170.612 308.179 173.474C313.309 175.094 317.629 178.388 322.056 181.466C325.89 184.166 329.886 186.866 333.126 190.268C340.74 198.422 341.119 210.896 335.07 219.698Z" fill="#92D5CD"/>
<path d="M295.651 196.802C298.454 196.802 300.727 194.529 300.727 191.726C300.727 188.923 298.454 186.65 295.651 186.65C292.848 186.65 290.575 188.923 290.575 191.726C290.575 194.529 292.848 196.802 295.651 196.802Z" fill="white"/>
<path d="M308.446 205.766C311.25 205.766 313.523 203.493 313.523 200.69C313.523 197.887 311.25 195.614 308.446 195.614C305.643 195.614 303.37 197.887 303.37 200.69C303.37 203.493 305.643 205.766 308.446 205.766Z" fill="white"/>
<path d="M320.382 214.136C323.186 214.136 325.459 211.863 325.459 209.06C325.459 206.257 323.186 203.984 320.382 203.984C317.579 203.984 315.306 206.257 315.306 209.06C315.306 211.863 317.579 214.136 320.382 214.136Z" fill="white"/>
<g opacity="0.54">
<path opacity="0.54" d="M180.254 68.4441C180.2 69.3081 180.037 70.1721 179.821 71.0361L177.554 80.8101C176.851 83.8341 176.095 86.9661 173.935 89.1801C169.94 93.2841 163.244 92.3121 157.681 91.0701L143.965 88.0461C140.834 87.3441 137.647 86.6421 134.785 85.0761C131.924 83.5101 129.547 80.9721 128.845 77.7861C128.36 75.4641 128.9 73.0341 129.385 70.7121L131.491 61.3161C132.194 58.2381 132.95 54.9981 135.164 52.7301C139.105 48.7341 145.694 49.6521 151.147 50.8401L165.134 53.8641C173.72 55.8081 180.955 59.6961 180.254 68.4441Z" fill="#92D5CD"/>
<path opacity="0.54" d="M161.408 68.7138C163.245 70.4418 163.352 73.3038 161.625 75.1398C161.085 75.7338 160.382 76.1658 159.626 76.3818L155.468 77.6778L151.31 78.9738C148.88 79.7298 146.342 78.3798 145.586 75.9498C145.37 75.1938 145.316 74.3838 145.478 73.5738L146.45 69.3078L147.422 65.0418C148.016 62.5578 150.446 61.0458 152.93 61.6398C153.686 61.8018 154.442 62.1798 154.982 62.7198L158.168 65.6898L161.408 68.7138Z" fill="white"/>
</g>
<g opacity="0.54">
<path opacity="0.54" d="M334.152 87.2894C334.098 88.1534 333.936 89.0175 333.72 89.8815L331.452 99.7095C330.75 102.733 329.994 105.865 327.834 108.079C323.838 112.184 317.142 111.211 311.58 110.023L297.864 106.999C294.732 106.297 291.546 105.595 288.684 104.029C285.822 102.463 283.446 99.9254 282.744 96.7395C282.258 94.4174 282.798 91.9875 283.284 89.6655L285.444 80.2695C286.146 77.1915 286.902 73.9515 289.116 71.6835C293.058 67.6875 299.646 68.6055 305.1 69.7935L319.086 72.8174C327.618 74.6534 334.8 78.5954 334.152 87.2894Z" fill="#92D5CD"/>
<path opacity="0.54" d="M315.251 87.5597C317.088 89.2877 317.195 92.1497 315.468 94.0397C314.928 94.6337 314.225 95.0657 313.469 95.2817L309.311 96.5777L305.153 97.8737C302.723 98.6297 300.185 97.2797 299.429 94.8497C299.213 94.0937 299.159 93.2837 299.321 92.4737L300.293 88.2077L301.265 83.9417C301.859 81.4577 304.289 79.9457 306.773 80.5397C307.529 80.7017 308.285 81.0797 308.825 81.6197L312.011 84.5897L315.251 87.5597Z" fill="white"/>
</g>
<g opacity="0.54">
<path opacity="0.54" d="M269.515 218.672C269.461 219.104 269.407 219.482 269.3 219.86L268.274 224.45C267.95 225.854 267.571 227.312 266.6 228.337C264.764 230.227 261.631 229.796 259.04 229.202L252.667 227.797C251.21 227.527 249.751 227.096 248.401 226.394C247.051 225.692 246.025 224.504 245.647 222.992C245.485 221.912 245.594 220.777 245.917 219.697L246.89 215.324C247.214 213.92 247.591 212.354 248.617 211.327C250.454 209.492 253.531 209.87 256.07 210.464L262.604 211.867C266.491 212.786 269.84 214.622 269.515 218.672Z" fill="#92D5CD"/>
<path opacity="0.54" d="M260.712 218.779C261.577 219.589 261.631 220.939 260.821 221.804C260.551 222.074 260.227 222.289 259.902 222.398L257.959 222.991L256.015 223.585C254.881 223.909 253.692 223.315 253.369 222.181C253.261 221.804 253.261 221.425 253.315 221.048L253.801 219.049L254.232 217.051C254.502 215.918 255.637 215.215 256.771 215.431C257.149 215.539 257.472 215.701 257.742 215.971L259.255 217.375L260.712 218.779Z" fill="white"/>
</g>
<g opacity="0.54">
<path opacity="0.54" d="M202.284 29.0244C202.716 29.2404 203.148 29.5104 203.58 29.8344L208.116 33.1284C209.52 34.1544 210.978 35.2344 211.626 36.8004C212.868 39.7704 210.87 43.0104 209.034 45.6024L204.444 51.9744C203.471 53.4864 202.284 54.8364 200.88 56.0244C199.476 57.1044 197.586 57.8064 195.858 57.4824C194.561 57.2124 193.428 56.4024 192.348 55.6464L187.974 52.5144C186.57 51.4884 185.058 50.3544 184.355 48.7344C183.168 45.8184 185.058 42.6324 186.894 40.0944L191.538 33.5604C194.346 29.6184 197.964 26.7564 202.284 29.0244Z" fill="#92D5CD"/>
<path opacity="0.54" d="M198.288 38.7981C199.584 38.2041 201.096 38.7981 201.636 40.0941C201.798 40.4721 201.906 40.9581 201.851 41.3901L201.581 43.8201L201.311 46.2501C201.15 47.6541 199.908 48.6801 198.504 48.5181C198.071 48.4641 197.64 48.3021 197.261 48.0321L195.318 46.5741L193.374 45.1701C192.24 44.3601 191.97 42.7401 192.834 41.6061C193.104 41.2281 193.481 40.9581 193.86 40.7961L196.074 39.8241L198.288 38.7981Z" fill="white"/>
</g>
<path d="M416.07 436.67C416.07 436.779 416.07 436.833 416.016 436.94V436.994C415.26 442.016 413.155 446.769 409.969 450.764C409.915 450.819 409.915 450.873 409.86 450.873C404.946 457.029 397.765 461.456 390.529 464.264C383.13 467.126 375.625 468.314 370.279 467.883H370.17C363.636 467.396 356.455 468.26 350.19 469.394C349.542 469.503 348.895 469.664 348.192 469.773C344.035 470.583 339.985 471.663 335.935 472.796L335.179 473.013L334.692 473.12C330.912 448.389 328.375 423.009 328.375 423.009L405.595 436.724C409.05 437.426 412.615 437.373 416.07 436.67Z" fill="#92D5CD"/>
<path d="M235.279 327.104C230.85 327.104 227.179 326.024 224.425 323.919C220.86 321.164 218.916 316.736 218.646 310.742C218.322 302.966 218.809 292.976 224.91 284.552C230.58 276.776 239.382 270.404 251.856 264.95L253.206 264.356L253.476 265.814C253.639 266.732 258.12 288.278 277.722 289.25C284.04 289.574 288.792 292.274 290.845 296.756C292.735 300.86 292.032 305.828 289.009 309.662C284.85 315.008 277.452 317.114 268.812 315.494L269.245 313.119C277.02 314.576 283.5 312.74 287.119 308.15C289.602 305.018 290.196 301.022 288.685 297.729C287.01 294.056 283.069 291.896 277.615 291.626C259.2 290.709 252.936 272.996 251.479 267.704C240.085 272.834 231.985 278.828 226.8 285.956C221.13 293.732 220.699 303.236 220.969 310.58C221.185 315.819 222.805 319.599 225.775 321.92C229.392 324.729 235.116 325.376 242.352 323.756C242.946 323.649 243.54 323.486 244.08 323.379C248.779 322.352 253.206 321.434 256.609 318.086L258.282 319.814C254.395 323.648 249.426 324.728 244.566 325.754C243.972 325.862 243.432 326.024 242.839 326.132C240.192 326.78 237.6 327.104 235.279 327.104Z" fill="#0B0B5F"/>
<path d="M273.132 327.211V324.781C273.672 324.781 274.104 324.781 274.59 324.727C274.752 324.727 274.914 324.727 275.076 324.727L275.94 324.674L276.156 327.104L275.076 327.211H274.968C274.914 327.211 274.806 327.211 274.752 327.211C274.266 327.211 273.726 327.211 273.132 327.211Z" fill="#0B0B5F"/>
<path d="M223.666 287.252C223.45 286.604 218.753 271.538 226.799 260.522C232.09 253.286 241.54 249.614 254.879 249.614C262.816 249.614 270.593 251.126 277.883 254.204C279.016 254.636 280.205 255.176 281.5 255.878C281.986 256.148 282.526 256.418 283.12 256.742C283.66 257.012 284.255 257.336 284.74 257.714C289.439 260.468 293.596 263.978 297.106 268.136L295.27 269.702C291.923 265.76 287.98 262.412 283.499 259.766L283.445 259.712C282.959 259.388 282.473 259.118 281.986 258.848H281.933C281.339 258.524 280.853 258.254 280.366 257.984C279.125 257.336 277.99 256.85 276.965 256.418C269.945 253.502 262.6 251.99 255.04 251.99C254.986 251.99 254.933 251.99 254.879 251.99C242.296 251.99 233.549 255.338 228.743 261.872C221.453 271.862 225.935 286.28 225.989 286.442L223.666 287.252Z" fill="#0B0B5F"/>
<path d="M301.968 357.236C300.779 350.865 301.535 340.875 304.343 327.645C306.018 319.652 307.853 313.28 308.069 312.525C310.608 297.566 311.093 287.199 309.528 281.745C309.095 280.286 308.339 278.396 306.935 278.019C305.423 277.586 303.533 278.829 302.939 279.369L301.319 277.532C301.428 277.425 304.505 274.779 307.583 275.696C309.528 276.29 310.985 278.072 311.795 281.096C313.469 286.929 312.983 297.675 310.338 313.01L310.283 313.172C310.283 313.226 308.339 319.815 306.558 328.13C303.911 340.875 303.101 350.756 304.181 356.75L301.968 357.236Z" fill="#0B0B5F"/>
<path d="M381.834 384.127L380.268 383.587C375.354 381.967 369.629 379.916 364.121 377.917C359.315 376.19 354.348 374.461 350.081 373.004L345.221 371.33C328.644 365.66 316.709 361.717 302.615 358.477C296.945 357.181 291.059 355.994 284.579 354.967L277.559 353.726C275.994 353.456 274.914 352.106 274.914 350.54V324.727L275.994 324.62C285.011 323.864 293.274 318.841 298.134 311.174C304.289 301.237 305.585 290.6 301.751 280.501C301.698 280.394 301.698 280.34 301.644 280.231L301.049 278.881C300.024 276.506 298.728 274.291 297.215 272.186C296.621 271.321 295.974 270.511 295.271 269.701L294.839 269.161L295.109 268.514C296.999 263.491 302.075 259.927 308.015 259.496C321.948 258.416 335.609 267.596 339.821 280.88C342.738 290.06 342.035 299.726 341.388 309.121C341.225 311.714 341.009 314.414 340.901 317.006C340.901 317.437 340.848 317.924 340.848 318.41C340.631 323.216 340.361 329.857 343.548 333.26C343.764 333.476 343.925 333.637 344.088 333.746C346.895 336.176 351.594 336.391 357.749 336.014C359.531 335.906 361.421 335.744 363.311 335.581C369.414 335.041 375.948 334.556 382.319 335.636L383.939 335.906V336.931C383.778 345.14 383.345 353.51 382.914 361.61C382.805 363.607 382.698 365.605 382.589 367.604C382.319 372.625 382.049 377.54 381.941 382.507L381.834 384.127ZM277.289 326.941V350.54C277.289 350.917 277.559 351.296 277.938 351.35L284.904 352.591C291.438 353.671 297.378 354.806 303.101 356.156C317.304 359.396 329.291 363.391 345.924 369.061L350.784 370.736C355.049 372.194 360.018 373.976 364.824 375.65C369.791 377.431 374.868 379.214 379.404 380.78C379.565 376.351 379.781 371.924 380.051 367.441C380.159 365.444 380.268 363.446 380.375 361.447C380.808 353.726 381.185 345.734 381.348 337.904C375.408 336.986 369.198 337.417 363.365 337.904C361.475 338.066 359.585 338.227 357.749 338.336C350.999 338.767 345.815 338.497 342.359 335.527C342.089 335.311 341.874 335.041 341.658 334.88C337.715 330.721 338.039 323.54 338.255 318.247C338.255 317.761 338.309 317.33 338.309 316.897C338.418 314.251 338.579 311.551 338.795 308.96C339.444 299.78 340.091 290.33 337.338 281.581C333.449 269.377 320.868 260.9 308.015 261.926C303.264 262.304 299.159 264.95 297.431 268.784C297.971 269.431 298.511 270.134 298.998 270.836C300.294 272.671 301.481 274.616 302.454 276.667C303.641 275.966 305.531 275.156 307.421 275.75C309.365 276.344 310.824 278.126 311.634 281.15L309.311 281.797C308.879 280.34 308.124 278.504 306.719 278.071C305.585 277.747 304.289 278.341 303.425 278.881C303.534 279.206 303.695 279.476 303.804 279.8C307.908 290.6 306.558 301.94 299.969 312.577C295.109 320.516 286.631 325.807 277.289 326.941Z" fill="#0B0B5F"/>
<path d="M131.652 370.357L129.276 370.034C130.41 361.394 131.22 352.537 131.976 344.005C132.732 335.96 133.489 327.59 134.515 319.435L136.89 319.76C135.865 327.914 135.109 336.23 134.352 344.275C133.596 352.807 132.732 361.717 131.652 370.357Z" fill="#0B0B5F"/>
<path d="M137.215 317.114L134.84 316.79C135.487 311.767 136.19 307.285 137 303.127C137.054 302.911 137.054 302.641 137.107 302.425C137.594 299.78 138.134 297.08 138.727 294.434C140.077 288.385 143.911 283.634 147.584 278.99C148.88 277.315 150.23 275.641 151.417 273.914L151.687 273.211L151.741 273.104C161.3 259.225 166.537 242.971 166.915 226.124C167.131 214.621 164.971 207.98 160.49 206.414C157.25 205.28 153.524 207.601 151.525 210.464C150.661 211.705 150.014 213.001 149.527 214.405L147.26 213.595C147.8 211.975 148.61 210.464 149.581 209.06C152.065 205.495 156.764 202.417 161.354 204.091C169.67 207.061 169.454 221.425 169.345 226.124C168.967 243.404 163.567 260.09 153.847 274.345L153.577 275.047L153.524 275.155C152.281 276.937 150.877 278.72 149.527 280.447C146.017 284.875 142.4 289.465 141.157 294.92C140.564 297.565 140.024 300.211 139.537 302.857V302.911C139.484 303.074 139.484 303.235 139.43 303.451V303.505C138.565 307.717 137.864 312.145 137.215 317.114Z" fill="#0B0B5F"/>
<path d="M199.098 514.269C183.491 470.042 188.676 421.55 189.756 412.694L165.78 413.45L98.7119 415.61C91.0439 415.88 83.6999 413.126 78.1379 407.889C72.5219 402.65 69.2819 395.522 69.0659 387.854C69.0119 386.504 69.0659 385.154 69.2279 383.804L69.2819 383.589L89.0999 310.85L91.4219 311.499L71.4958 384.129C71.3878 385.316 71.3339 386.504 71.3879 387.746C71.6039 394.766 74.5739 401.3 79.7039 406.106C84.8339 410.912 91.5299 413.45 98.5499 413.18L165.618 411.074L192.51 410.21L192.294 411.669C192.186 412.209 184.356 465.452 201.311 513.512L199.098 514.269Z" fill="#0B0B5F"/>
<path d="M92.3928 307.934L90.0708 307.286L91.8528 300.914L93.8507 293.678L96.1727 294.326L94.1747 301.562L92.3928 307.934Z" fill="#0B0B5F"/>
<path d="M97.9023 288.115L95.5803 287.467L96.7143 283.31C98.1723 278.071 97.7943 272.401 95.6883 267.38L93.3663 261.764C91.7463 256.85 91.3143 254.42 93.3123 249.614C94.2843 247.345 95.5803 245.294 97.2543 243.511C101.52 238.76 107.892 235.735 115.56 234.764C121.339 234.007 129.546 234.17 135.702 239.137C139.59 242.27 143.37 249.83 140.67 254.96C138.78 258.524 134.622 260.09 130.734 258.577C129.492 258.091 128.359 257.335 127.44 256.364C125.604 254.42 122.364 253.231 119.394 253.447C117.504 253.555 116.046 254.257 115.29 255.337L113.346 253.934C114.589 252.26 116.64 251.234 119.232 251.071C122.904 250.801 126.846 252.26 129.222 254.744C129.87 255.445 130.734 255.985 131.599 256.364C133.866 257.227 136.999 256.795 138.51 253.88C140.562 249.937 137.269 243.511 134.19 241.027C128.736 236.6 121.23 236.491 115.884 237.194C108.756 238.111 102.978 240.865 99.0363 245.185C97.5783 246.805 96.3903 248.587 95.5263 250.585C93.7983 254.635 94.1223 256.471 95.6343 261.007L97.9023 266.461C100.224 271.97 100.656 278.234 99.0363 284.011L97.9023 288.115Z" fill="#0B0B5F"/>
<path d="M381.725 388.501H379.295C379.295 387.151 379.349 385.747 379.403 384.397V384.344C379.403 383.695 379.458 382.994 379.458 382.4L381.888 382.561C381.833 383.101 381.833 383.75 381.833 384.397V384.505C381.779 385.855 381.725 387.205 381.725 388.501Z" fill="#0B0B5F"/>
<path d="M383.885 336.931L381.455 336.877C381.671 328.832 381.455 320.624 380.861 312.577C380.214 304.586 375.624 297.512 371.52 291.302C365.364 281.96 363.095 273.967 364.661 267.704C365.741 263.492 368.604 260.036 372.924 257.714L374.058 259.82C370.278 261.817 367.901 264.68 366.984 268.244C365.525 273.86 367.74 281.15 373.518 289.952C377.568 296.107 382.535 303.721 383.238 312.361C383.94 320.516 384.101 328.777 383.885 336.931Z" fill="#0B0B5F"/>
<path d="M410.508 438.506C408.779 438.506 407.105 438.344 405.378 438.02L335.069 425.546L312.065 421.441L312.498 419.066L405.809 435.644C409.158 436.237 412.559 436.184 415.854 435.536C427.679 433.051 436.265 422.9 436.751 410.857L426.384 325.916L424.061 307.771C423.305 301.831 424.601 295.73 427.679 290.6L430.811 285.416C431.351 284.606 432.648 282.121 431.891 280.61C431.298 279.367 429.245 278.99 427.679 278.881C422.118 278.557 416.825 280.34 413.369 281.906C411.264 282.824 407.538 284.767 406.188 287.467C405.701 288.331 405.539 289.304 405.755 290.221C406.134 292.22 407.484 293.84 409.481 294.866C411.804 296 414.665 296.054 416.771 294.974L417.851 297.134C415.044 298.537 411.425 298.537 408.455 297.026C405.755 295.676 403.919 293.461 403.434 290.707C403.164 289.196 403.379 287.684 404.135 286.334C405.755 283.201 409.535 280.987 412.451 279.746C416.178 278.071 421.848 276.127 427.895 276.506C431.135 276.721 433.188 277.747 434.105 279.584C435.564 282.554 433.241 286.226 432.864 286.766L429.785 291.841C426.978 296.54 425.789 302.047 426.491 307.501L428.814 325.646L439.235 410.804V410.911C438.749 424.141 429.354 435.266 416.394 437.966C414.395 438.29 412.451 438.506 410.508 438.506Z" fill="#0B0B5F"/>
<path d="M404.946 288.062C399.006 288.062 395.389 285.254 395.226 280.556C394.956 273.32 403.92 262.682 419.149 261.71C427.14 261.224 432.055 262.844 433.782 266.57C437.779 275.21 431.622 278.99 431.569 279.044L430.326 276.992C430.489 276.884 434.646 274.239 431.569 267.596C430.326 264.896 426.06 263.709 419.31 264.14C405.702 265.004 397.386 274.4 397.656 280.502C397.765 283.904 400.465 285.74 405.216 285.686L405.27 288.116C405.109 288.062 405 288.062 404.946 288.062Z" fill="#0B0B5F"/>
<path d="M392.904 281.797C391.446 281.797 389.826 281.42 388.26 280.717C385.722 279.584 383.832 277.802 383.346 276.074C380.106 264.787 392.472 256.85 397.926 253.987C404.244 250.64 410.238 248.857 415.692 248.642C420.336 248.48 425.52 251.342 427.572 255.176C429.03 257.93 428.76 260.9 426.816 263.546L424.872 262.142C426.276 260.197 426.492 258.254 425.412 256.31C423.846 253.34 419.418 250.91 415.746 251.017C410.616 251.18 405 252.907 399.006 256.04C394.092 258.632 382.86 265.76 385.614 275.372C385.83 276.236 387.18 277.532 389.178 278.45C391.338 279.422 393.552 279.584 395.064 278.827L396.09 280.987C395.226 281.527 394.146 281.797 392.904 281.797Z" fill="#0B0B5F"/>
<path d="M379.297 276.236C375.787 276.236 372.331 274.184 370.657 271.106C369.522 269 368.281 264.517 372.547 258.2C374.761 255.067 377.407 252.314 380.431 249.937C388.639 243.241 395.659 240.434 401.275 241.73C405.055 242.54 407.971 245.077 409.969 249.29C410.022 249.397 410.077 249.451 410.077 249.506C409.915 249.181 409.375 248.804 408.781 249.02L409.105 250.154L410.347 250.1L409.429 251.341C408.457 251.557 408.025 250.694 407.862 250.37C406.189 246.914 403.812 244.807 400.842 244.16C395.982 243.08 389.611 245.671 381.997 251.936C379.135 254.15 376.651 256.741 374.599 259.711C371.251 264.734 371.791 268.136 372.871 270.134C374.112 272.401 376.759 274.021 379.351 274.021C379.351 274.021 379.351 274.021 379.405 274.021C380.377 274.021 382.159 273.751 383.022 272.131L384.049 272.671H385.291V272.996L385.129 273.266C384.049 275.047 381.997 276.181 379.297 276.236C379.351 276.236 379.351 276.236 379.297 276.236Z" fill="#0B0B5F"/>
<path d="M400.949 296.27L398.626 295.676C400.949 286.711 393.604 281.366 393.28 281.096L394.684 279.151C394.793 279.206 403.703 285.686 400.949 296.27Z" fill="#0B0B5F"/>
<path d="M157.519 243.404L156.061 241.46C160.002 238.49 159.031 232.604 157.572 228.121C155.575 222.181 152.389 217.916 147.799 215.054C145.909 213.866 143.856 213.001 141.696 212.354C139.806 211.814 137.862 211.436 135.919 211.274C130.572 210.734 124.579 211.436 118.585 213.271C116.641 213.866 114.859 214.514 113.292 215.161C106.975 217.754 103.087 220.994 101.683 224.774C100.657 227.636 100.387 230.174 100.927 232.28L98.6048 232.874C97.9568 230.228 98.2268 227.204 99.4148 223.91C101.035 219.481 105.409 215.756 112.375 212.894C113.995 212.191 115.885 211.544 117.882 210.95C124.201 209.006 130.519 208.304 136.189 208.844C138.295 209.06 140.347 209.438 142.399 210.031C144.775 210.734 146.989 211.706 149.095 213.001C154.117 216.08 157.789 220.94 159.895 227.366C162.325 234.818 161.515 240.38 157.519 243.404Z" fill="#0B0B5F"/>
<path d="M157.194 311.822L155.574 319.544C155.359 320.624 154.332 321.326 153.252 321.056H153.199C147.042 319.597 141.696 318.247 136.026 316.952C133.219 316.304 130.302 315.656 127.279 315.007C115.29 312.524 103.302 309.716 91.2603 307.556C86.2383 306.637 81.1623 305.882 76.0863 305.287C73.2243 304.964 70.3623 304.802 67.5003 304.64C66.8523 304.64 66.2583 304.424 65.7723 304.046C63.0723 302.047 65.7723 295.622 66.3663 292.976C66.3663 292.922 66.3663 292.922 66.3663 292.867C66.7983 290.816 78.5703 291.41 94.9863 293.947C100.71 294.866 107.028 296 113.616 297.35C122.904 299.24 131.274 301.292 138.132 303.29C139.32 303.614 140.454 303.937 141.534 304.316C141.534 304.316 141.534 304.316 141.589 304.316C142.939 304.747 144.234 305.18 145.422 305.557C153.036 308.204 157.464 310.472 157.194 311.822Z" fill="#92D5CD"/>
<path d="M153.631 322.352C153.415 322.352 153.199 322.352 152.982 322.298C152.929 322.298 152.875 322.298 152.875 322.244C150.391 321.65 147.961 321.056 145.639 320.516C142.291 319.706 139.105 318.95 135.756 318.14C132.786 317.438 129.655 316.79 127.009 316.25C123.066 315.44 119.016 314.576 115.182 313.712C107.299 311.984 99.0906 310.256 91.0446 308.798C85.5366 307.826 80.6226 307.07 75.9786 306.53C73.9806 306.314 71.8746 306.152 69.8766 306.044C69.0666 305.99 68.2566 305.936 67.5006 305.882C66.6366 305.882 65.8266 305.558 65.1246 305.072C62.2626 302.966 63.6666 298.16 64.7466 294.65C64.9626 293.948 65.1246 293.354 65.2326 292.922V292.706C65.5026 291.518 66.1506 288.332 95.2026 292.868C101.359 293.84 107.677 294.974 113.886 296.27C122.796 298.106 131.329 300.158 138.456 302.21L138.781 302.318C139.806 302.588 140.779 302.912 141.696 303.182L141.912 303.236C143.479 303.722 144.721 304.154 145.801 304.532C149.689 305.882 152.766 307.07 154.819 308.204C156.762 309.23 158.706 310.472 158.329 312.146L156.709 319.868C156.439 321.272 155.142 322.352 153.631 322.352ZM67.5546 293.354C67.4466 293.894 67.2306 294.542 67.0146 295.298C66.3126 297.62 65.0166 301.994 66.5286 303.128C66.8526 303.344 67.1766 303.452 67.5546 303.506H67.6086C68.4186 303.56 69.2286 303.614 69.9846 303.668C72.0366 303.776 74.1426 303.938 76.1946 304.208C80.8926 304.748 85.9146 305.504 91.4226 306.476C99.5226 307.934 107.731 309.716 115.615 311.39C119.502 312.2 123.499 313.118 127.441 313.928C130.086 314.468 133.219 315.17 136.242 315.872C139.536 316.628 142.776 317.384 146.125 318.248C148.446 318.842 150.876 319.382 153.415 319.976C153.846 320.084 154.279 319.814 154.332 319.382L155.899 311.876C155.629 311.498 153.901 309.878 144.991 306.8C143.965 306.422 142.776 306.044 141.319 305.612L141.156 305.558C140.185 305.234 139.159 304.964 138.132 304.64L137.809 304.532C130.735 302.48 122.256 300.428 113.401 298.592C107.191 297.296 100.981 296.162 94.8246 295.244C77.2206 292.436 69.0126 292.598 67.5546 293.354Z" fill="#0B0B5F"/>
<path d="M147.905 257.335C145.313 257.335 142.938 256.255 140.993 254.15L140.885 254.041L139.265 250.801L141.425 249.721L142.883 252.637C144.828 254.69 147.095 255.391 149.849 254.69C155.195 253.34 157.085 249.451 155.573 242.701C155.358 241.73 155.088 240.757 154.763 239.785C153.143 234.925 150.605 231.091 147.258 228.337C144.773 226.34 141.965 224.881 138.888 224.017C136.349 223.261 133.758 222.884 131.165 222.775C125.928 222.614 120.798 223.315 115.829 224.881C108.431 227.15 103.355 230.011 100.655 233.36C99.8992 234.277 99.3052 235.304 98.9272 236.384C97.9552 239.03 97.6312 241.405 98.0632 243.35L98.4412 245.24L96.0652 245.725L95.6872 243.835C95.2012 241.405 95.5252 238.597 96.6592 235.52C97.1452 234.17 97.9012 232.927 98.8192 231.794C101.843 228.014 107.189 224.99 115.181 222.56C120.419 220.885 125.873 220.184 131.328 220.345C134.135 220.454 136.943 220.885 139.643 221.695C142.991 222.614 146.123 224.234 148.823 226.447C152.549 229.471 155.358 233.684 157.139 238.975C157.518 240.001 157.788 241.081 158.003 242.161C159.731 250.1 157.085 255.337 150.498 257.011C149.579 257.227 148.715 257.335 147.905 257.335Z" fill="#0B0B5F"/>
<path d="M143.532 211.652L141.21 211.112L145.098 195.02C145.584 192.914 145.26 190.7 144.126 188.864C142.992 187.027 141.156 185.677 139.05 185.192C138.834 185.137 138.672 185.084 138.456 185.084C138.024 185.03 137.592 184.976 137.16 184.976C133.326 184.976 130.032 187.676 129.222 191.402C128.952 192.697 128.628 194.21 128.25 195.776C127.926 197.234 127.602 198.8 127.224 200.42C126.522 203.714 125.712 207.277 124.902 211.057L122.526 210.517C123.336 206.737 124.146 203.174 124.848 199.88C125.226 198.26 125.55 196.694 125.874 195.236C126.198 193.616 126.522 192.157 126.846 190.862C127.872 186.056 132.246 182.546 137.16 182.546C137.214 182.546 137.214 182.546 137.268 182.546C137.808 182.546 138.348 182.6 138.888 182.654C139.158 182.707 139.374 182.762 139.644 182.816C142.398 183.464 144.72 185.137 146.232 187.567C147.69 189.997 148.176 192.806 147.528 195.56L143.532 211.652Z" fill="#0B0B5F"/>
<path d="M81.9175 293.407L81.7554 290.977C86.7774 290.654 91.7995 289.196 96.1735 286.657C104.867 281.582 110.268 272.294 112.265 259.117C112.265 258.847 112.319 258.2 113.129 254.312L115.505 254.797C114.804 258.254 114.695 259.01 114.695 259.117V259.334C112.589 273.32 106.811 283.202 97.4155 288.71C92.6635 291.517 87.3175 293.084 81.9175 293.407Z" fill="#0B0B5F"/>
<path d="M145.421 306.854C143.963 306.529 142.505 306.044 141.101 305.449C139.913 304.964 138.779 304.424 137.699 303.775C129.275 298.699 125.279 288.925 126.251 275.587C126.953 265.705 130.031 257.389 130.139 257.065L132.408 257.929C132.299 258.254 120.473 290.545 138.995 301.724C139.968 302.317 140.993 302.804 142.073 303.235C143.369 303.775 144.665 304.207 146.015 304.531L145.421 306.854Z" fill="#0B0B5F"/>
<path d="M151.902 322.514C149.256 322.514 144.45 322.136 135.54 320.786C128.359 319.706 119.286 318.14 108.594 316.088C102.06 314.846 96.0122 313.604 90.0722 312.362C65.1242 307.016 64.8002 305.396 64.5842 304.424C64.4762 303.884 64.6922 303.398 65.1242 303.074L66.4742 305.072C66.7442 304.856 66.9602 304.586 66.9602 304.207C66.9602 303.83 66.7982 303.56 66.7442 303.506C67.0682 303.83 69.7682 305.504 90.5582 309.986C96.4982 311.228 102.492 312.47 109.026 313.712C119.664 315.764 128.682 317.33 135.864 318.41C151.309 320.732 153.63 320.03 153.846 319.976C153.684 320.03 153.306 320.408 153.306 321.002L155.736 320.894C155.736 321.272 155.574 321.65 155.304 321.92C155.034 322.136 154.602 322.514 151.902 322.514Z" fill="#0B0B5F"/>
<path d="M207.9 133.082C203.85 154.466 190.566 177.039 174.42 191.511C167.831 197.451 160.164 201.609 151.848 203.229C149.31 203.769 146.718 203.985 144.126 204.039L146.231 195.345C147.311 190.916 145.044 186.381 140.886 184.545C140.184 184.221 139.374 184.005 138.618 183.896C138.131 183.789 137.591 183.789 137.106 183.789C132.678 183.789 128.898 186.866 127.98 191.186C127.656 192.752 127.224 194.535 126.846 196.532C106.326 182.979 97.4157 153.926 98.4417 130.382C98.7657 122.552 99.1977 112.239 102.6 104.247C103.734 101.385 105.462 98.8466 107.676 96.6866C117.396 87.5606 130.68 83.3486 144.45 82.7546C154.98 83.2406 165.348 85.5626 175.068 89.6126C193.158 97.1726 212.111 110.781 207.9 133.082Z" fill="#92D5CD"/>
<path d="M207.9 133.082C203.85 154.466 190.566 177.038 174.42 191.51C167.832 197.45 160.164 201.608 151.849 203.228L153.739 195.345C154.926 190.322 151.848 185.246 146.772 184.058C146.556 184.005 146.34 183.95 146.124 183.95C145.639 183.842 145.098 183.842 144.612 183.842C143.316 183.842 142.02 184.112 140.832 184.652C140.13 184.328 139.32 184.112 138.564 184.005C138.079 183.896 137.539 183.896 137.052 183.896C132.679 183.896 128.844 186.975 127.926 191.24C127.602 192.806 127.17 194.588 126.792 196.586C106.272 183.032 97.3621 153.98 98.3881 130.436C98.7121 122.606 99.1441 112.292 102.546 104.3C103.68 101.438 105.408 98.9001 107.622 96.7401C117.342 87.6141 130.626 83.4021 144.396 82.8081C154.926 83.2941 165.294 85.6161 175.014 89.6661C193.159 97.1721 212.112 110.78 207.9 133.082Z" fill="#92D5CD"/>
<path d="M142.613 205.171L145.096 194.966C146.123 190.591 143.423 186.164 139.049 185.138C138.833 185.084 138.67 185.03 138.455 185.03C138.023 184.976 137.59 184.921 137.159 184.921C133.325 184.921 130.03 187.621 129.22 191.348C128.95 192.644 128.626 194.156 128.249 195.721C127.925 197.18 127.6 198.746 127.223 200.366L126.899 201.824L125.549 201.23C99.3048 189.62 88.5588 156.301 89.6928 130.22C90.0168 122.498 90.3948 111.914 93.9588 103.706C95.2008 100.736 96.9828 98.0359 99.3048 95.7679C119.23 77.0299 152.765 78.8659 175.553 88.4239C193.319 95.9299 213.569 109.808 209.14 133.298C205.145 154.628 192.13 177.254 175.283 192.374C165.995 200.69 155.249 205.118 144.179 205.171H142.613ZM137.213 182.546C137.753 182.546 138.293 182.6 138.833 182.654C139.103 182.708 139.319 182.761 139.589 182.816C145.259 184.166 148.769 189.89 147.419 195.56L145.69 202.741C155.573 202.31 165.239 198.098 173.609 190.591C189.863 176.011 202.823 153.386 206.71 132.866C210.815 110.941 191.483 97.8199 174.526 90.6919C152.495 81.3499 120.04 79.5139 100.925 97.5499C98.8728 99.5479 97.2528 101.978 96.1188 104.678C92.7168 112.508 92.3388 122.821 92.0148 130.381C90.9888 155.168 100.925 186.758 125.116 198.476C125.333 197.396 125.603 196.316 125.819 195.29C126.143 193.67 126.466 192.211 126.79 190.916C127.816 186.11 132.19 182.6 137.105 182.6C137.159 182.546 137.159 182.546 137.213 182.546Z" fill="#0B0B5F"/>
<path d="M186.624 179.9C186.409 179.9 186.246 179.9 186.03 179.9L186.084 177.47C193.699 177.579 203.959 175.689 209.304 166.13C210.276 164.349 211.032 162.459 211.572 160.514C215.082 147.879 210.979 139.454 206.929 134.594L208.764 133.029C213.192 138.32 217.62 147.446 213.84 161.109C213.246 163.269 212.436 165.32 211.356 167.264C205.254 178.172 193.482 179.9 186.624 179.9Z" fill="#0B0B5F"/>
<path d="M183.059 190.754C180.575 190.754 178.469 190.538 177.065 190.321L177.389 187.946C184.949 188.971 203.039 189.458 208.061 171.314C208.494 169.748 208.818 168.181 209.034 166.561C210.491 156.41 206.819 149.498 203.471 145.556L205.308 143.99C208.925 148.364 212.975 155.87 211.409 166.886C211.194 168.56 210.815 170.288 210.329 171.908C205.955 188 192.024 190.754 183.059 190.754Z" fill="#0B0B5F"/>
<path d="M97.361 172.826C93.149 172.826 84.401 170.666 77.867 165.427C72.089 160.784 69.119 154.79 69.011 147.607C68.903 144.746 69.497 141.884 70.577 139.237C74.573 130.274 84.941 127.466 90.827 126.547L91.205 128.924C85.859 129.734 76.355 132.271 72.845 140.21C71.873 142.477 71.387 145.07 71.441 147.554C71.549 154.034 74.195 159.38 79.433 163.537C86.723 169.424 96.497 170.774 98.441 170.341L98.927 172.717C98.441 172.771 97.955 172.826 97.361 172.826Z" fill="#0B0B5F"/>
<path d="M94.0675 162.781C90.5035 162.781 80.9455 159.38 74.5735 152.63C69.4975 147.23 67.3914 140.857 68.3094 133.73C68.6334 130.921 69.5514 128.114 71.0634 125.684C76.1934 117.422 86.9394 116.017 92.8794 115.91L92.9334 118.34C87.4794 118.447 77.7054 119.636 73.1694 126.926C71.8734 129.031 71.0635 131.516 70.7935 134C69.9835 140.426 71.8735 146.096 76.4635 150.956C82.5115 157.436 91.8534 160.514 94.3374 160.351L94.4995 162.781C94.2835 162.781 94.1755 162.781 94.0675 162.781Z" fill="#0B0B5F"/>
<path d="M192.349 411.614L189.972 411.29C189.972 411.128 190.512 407.348 193.212 398.87L195.535 399.625C192.889 407.834 192.349 411.559 192.349 411.614Z" fill="#0B0B5F"/>
<path d="M257.527 371.978C250.831 371.978 244.675 369.764 239.761 365.498C234.577 360.961 231.607 354.751 231.931 348.758L234.361 348.866C234.091 354.104 236.737 359.611 241.381 363.661C247.159 368.684 254.881 370.574 263.197 369.008C271.189 367.496 278.587 364.471 278.802 352.916H281.232V352.97C281.017 366.361 271.729 369.871 263.682 371.384C261.577 371.816 259.525 371.978 257.527 371.978Z" fill="#0B0B5F"/>
<path d="M236.142 299.942C235.98 299.887 235.764 299.834 235.494 299.78C233.389 299.186 231.282 298.537 230.689 297.026C230.419 296.324 230.526 295.567 231.012 294.866C235.819 287.684 235.44 282.122 235.44 282.014L237.87 281.797C237.87 282.067 238.41 288.277 233.064 296.162C233.389 296.486 234.414 296.917 236.196 297.404C236.52 297.512 236.79 297.566 237.006 297.62L236.142 299.942Z" fill="#0B0B5F"/>
<path d="M247.86 302.048C246.294 302.048 244.782 301.67 243.432 300.86C238.518 298.052 237.33 290.978 240.732 285.092C244.134 279.206 250.884 276.722 255.744 279.53C258.174 280.934 259.74 283.364 260.226 286.388C260.712 289.358 260.064 292.49 258.444 295.298C256.014 299.564 251.856 302.048 247.86 302.048ZM242.839 286.334C240.084 291.086 240.949 296.648 244.674 298.808C248.4 300.968 253.692 298.862 256.392 294.164C257.742 291.842 258.282 289.25 257.904 286.82C257.526 284.498 256.339 282.662 254.61 281.636C250.83 279.476 245.539 281.582 242.839 286.334Z" fill="#0B0B5F"/>
<path d="M226.369 295.244C224.802 295.244 223.29 294.866 221.94 294.11C219.51 292.706 217.89 290.276 217.404 287.252C216.919 284.282 217.566 281.096 219.186 278.289C220.806 275.48 223.236 273.32 226.044 272.24C228.906 271.16 231.822 271.269 234.252 272.672C239.166 275.48 240.409 282.609 237.006 288.494C234.576 292.76 230.364 295.244 226.369 295.244ZM229.824 273.915C228.906 273.915 227.88 274.076 226.909 274.455C224.64 275.319 222.642 277.1 221.292 279.422C219.942 281.745 219.402 284.39 219.834 286.766C220.212 289.089 221.4 290.925 223.182 291.95C226.962 294.11 232.2 292.005 234.954 287.252C237.709 282.5 236.844 276.885 233.119 274.725C232.092 274.185 231.012 273.915 229.824 273.915Z" fill="#0B0B5F"/>
<path d="M228.529 276.506C229.446 276.506 230.31 276.721 231.12 277.154C232.579 278.071 233.55 279.584 233.766 281.311C234.036 283.418 233.605 285.578 232.525 287.414C230.905 290.221 228.205 292.004 225.505 292.004C224.586 292.004 223.722 291.788 222.912 291.356C221.455 290.438 220.482 288.926 220.266 287.198C219.996 285.091 220.429 282.931 221.509 281.096C223.129 278.341 225.829 276.506 228.529 276.506ZM228.529 274.886C225.396 274.886 222.102 276.884 220.159 280.286C217.459 284.984 218.322 290.546 222.156 292.706C223.182 293.3 224.37 293.624 225.505 293.624C228.636 293.624 231.93 291.626 233.875 288.224C236.575 283.526 235.656 277.964 231.876 275.804C230.85 275.21 229.716 274.886 228.529 274.886Z" fill="white"/>
<path d="M233.899 288.232C236.598 283.558 235.708 277.991 231.911 275.799C228.115 273.606 222.85 275.619 220.151 280.294C217.451 284.969 218.341 290.535 222.138 292.727C225.934 294.92 231.2 292.907 233.899 288.232Z" fill="#92D5CD"/>
<path d="M257.704 293.212C260.41 288.506 259.5 282.908 255.672 280.709C251.845 278.509 246.551 280.542 243.846 285.247C241.142 289.953 242.051 295.551 245.878 297.75C249.705 299.95 255 297.918 257.704 293.212Z" fill="#92D5CD"/>
<path d="M240.894 286.496C239.274 284.606 238.301 284.39 237.978 284.39C237.708 284.39 237.545 284.551 237.545 284.551L236.519 283.85L235.494 283.201C235.548 283.094 236.304 282.068 237.761 282.014C239.274 281.906 240.948 282.931 242.729 284.984L240.894 286.496Z" fill="#0B0B5F"/>
<path d="M252.392 289.722C253.278 288.561 253.21 287.018 252.237 286.276C251.266 285.534 249.759 285.874 248.872 287.035C247.985 288.196 248.054 289.739 249.026 290.481C249.998 291.223 251.505 290.883 252.392 289.722Z" fill="#0B0B5F"/>
<path d="M234.159 284.509C235.046 283.347 234.977 281.804 234.005 281.062C233.033 280.32 231.527 280.66 230.64 281.822C229.754 282.983 229.823 284.526 230.794 285.268C231.766 286.01 233.272 285.67 234.159 284.509Z" fill="#0B0B5F"/>
<path d="M237.761 314.09C237.33 314.09 236.844 314.036 236.411 313.981C232.091 313.441 229.824 310.256 229.77 310.094L231.768 308.744C231.768 308.744 233.55 311.174 236.79 311.606C239.814 311.984 243.216 310.58 246.834 307.501L248.4 309.337C244.674 312.47 241.11 314.09 237.761 314.09Z" fill="#0B0B5F"/>
<path d="M130.68 363.607L130.248 361.231C134.73 360.421 139.32 359.719 143.748 358.964C148.77 358.154 153.9 357.344 158.921 356.425C163.565 355.561 168.21 354.751 172.8 353.941C190.89 350.864 212.381 347.731 234.9 347.624C236.358 347.624 237.654 346.544 237.815 345.085L238.194 342.224L240.624 324.295L243 324.619L240.191 345.464C239.814 348.109 237.545 350.107 234.9 350.107C212.598 350.215 191.214 353.347 173.231 356.371C168.695 357.181 163.998 357.991 159.408 358.855C154.331 359.774 149.201 360.637 144.18 361.394C139.698 362.095 135.108 362.797 130.68 363.607Z" fill="#0B0B5F"/>
<path d="M277.29 325.376H274.86V325.916H277.29V325.376Z" fill="#0B0B5F"/>
<path d="M477.252 512.701H65.7722V515.131H477.252V512.701Z" fill="#0B0B5F"/>
<path d="M342.305 514.323C339.498 506.924 336.528 493.154 333.503 473.39C329.778 448.874 327.185 423.494 327.131 423.224L329.508 423.009C329.508 423.279 332.099 448.604 335.825 473.066C338.795 492.399 341.765 506.384 344.465 513.513L342.305 514.323Z" fill="#0B0B5F"/>
<path d="M335.016 474.362L334.368 472.04L335.61 471.716C339.822 470.528 343.98 469.502 347.976 468.692C348.516 468.585 349.056 468.476 349.596 468.368L349.974 468.315C354.672 467.45 359.424 466.965 364.176 466.91C366.012 466.91 367.956 466.856 370.116 466.748H370.278C377.784 466.316 384.48 465.128 390.15 463.185C398.304 460.43 404.622 456.056 408.888 450.225C408.942 450.17 408.942 450.116 408.996 450.062C411.804 446.12 413.802 441.692 414.774 436.94C414.774 436.832 414.774 436.778 414.828 436.67L414.882 436.455L417.204 436.94C417.204 436.832 417.15 436.725 417.15 436.616L417.258 436.94L417.204 437.265C416.124 442.395 414.018 447.2 410.94 451.466L410.886 451.52C410.886 451.575 410.832 451.575 410.778 451.628C406.188 457.838 399.492 462.482 390.906 465.398C385.02 467.396 378.108 468.638 370.332 469.125H370.17C368.01 469.232 366.012 469.286 364.176 469.286C359.586 469.34 354.942 469.772 350.406 470.636L350.028 470.69C349.488 470.798 349.002 470.906 348.462 471.015C344.52 471.825 340.416 472.85 336.258 473.985L335.016 474.362Z" fill="#0B0B5F"/>
</g>
</g>
<defs>
<clipPath id="clip0_3_255">
<rect width="540" height="540" fill="white" transform="translate(0 0.889893)"/>
</clipPath>
<clipPath id="clip1_3_255">
<rect width="540" height="540" fill="white" transform="translate(0 0.889893)"/>
</clipPath>
</defs>
</svg>
