<svg width="540" height="541" viewBox="0 0 540 541" fill="none" xmlns="http://www.w3.org/2000/svg">
<g clip-path="url(#clip0_3_104)">
<g clip-path="url(#clip1_3_104)">
<path fill-rule="evenodd" clip-rule="evenodd" d="M395.582 99.7907C396.971 103.963 398.362 108.142 400.323 112.446C403.084 118.512 405.604 124.751 407.867 131.029L404.189 132.355C401.96 126.17 399.479 120.032 396.765 114.067M395.582 99.7907C395.075 98.2657 394.568 96.7413 394.033 95.2119L395.582 99.7907ZM394.033 95.2119C392.058 89.5636 389.747 83.9925 385.727 78.7397L394.033 95.2119ZM382.622 81.116C386.265 85.8749 388.411 90.9823 390.342 96.5025L382.622 81.116ZM390.342 96.5025C390.838 97.9203 391.322 99.376 391.816 100.861L390.342 96.5025ZM391.816 100.861C393.224 105.09 394.71 109.558 396.765 114.067L391.816 100.861Z" fill="#CCDDE2"/>
<path fill-rule="evenodd" clip-rule="evenodd" d="M249.093 50.8951C288.126 34.6972 318.998 35.7559 343.291 47.3897L343.293 47.3908C353.507 52.2981 359.707 58.7147 365.497 64.7056C366.27 65.507 367.038 66.3006 367.806 67.082L365.018 69.8228C364.227 69.0185 363.447 68.2125 362.668 67.4077C356.873 61.4193 351.148 55.5029 341.602 50.9154C318.536 39.8697 288.854 38.6281 250.591 54.5061L249.093 50.8951Z" fill="#CCDDE2"/>
<path fill-rule="evenodd" clip-rule="evenodd" d="M46.0024 334.174C39.7848 394.983 51.8179 454.343 88.9562 506.84L85.7645 509.098C48.0049 455.723 35.8135 395.386 42.1131 333.777L46.0024 334.174Z" fill="#CCDDE2"/>
<path fill-rule="evenodd" clip-rule="evenodd" d="M425.139 247.995V247.371H429.049V248.054L429.048 248.085C428.875 253.653 431.431 268.648 437.956 284.244C444.48 299.836 454.77 315.539 469.719 323.05C486.015 331.237 499.679 353.022 500.364 376.128C500.708 387.749 497.777 399.768 490.209 410.616C482.643 421.464 470.523 431.023 452.677 437.872C417.952 451.198 401.755 468.889 394.187 483.033C390.393 490.124 388.739 496.376 388.03 500.827C387.675 503.054 387.558 504.83 387.527 506.034C387.511 506.635 387.518 507.094 387.528 507.395C387.532 507.544 387.539 507.655 387.542 507.724C387.543 507.745 387.544 507.763 387.545 507.776L387.548 507.796V507.806C387.548 507.806 387.548 507.804 385.6 507.969C383.652 508.135 383.652 508.134 383.651 508.131V508.127L383.65 508.115L383.648 508.078C383.646 508.048 383.643 508.006 383.639 507.955C383.634 507.853 383.626 507.707 383.621 507.521C383.609 507.149 383.601 506.615 383.618 505.934C383.654 504.573 383.785 502.625 384.169 500.212C384.938 495.388 386.715 488.711 390.739 481.188C398.81 466.106 415.801 447.836 451.276 434.222C468.53 427.6 479.961 418.474 487.003 408.38C494.043 398.287 496.778 387.112 496.456 376.243C495.808 354.369 482.803 333.999 467.964 326.543C451.775 318.409 441.008 301.666 434.35 285.753C427.705 269.871 424.954 254.326 425.139 247.995Z" fill="#CCDDE2"/>
<path fill-rule="evenodd" clip-rule="evenodd" d="M42.0766 28.3313H42.0816H234.758C239.273 28.3426 243.598 30.1406 246.79 33.3323C249.982 36.524 251.779 40.8496 251.79 45.3634V45.3683V103.548C251.79 104.627 250.916 105.503 249.836 105.503C248.756 105.503 247.881 104.627 247.881 103.548V45.3731C247.872 41.893 246.486 38.5577 244.025 36.0969C241.564 33.6365 238.23 32.2502 234.751 32.2409H42.0841C38.6047 32.2502 35.2705 33.6365 32.8101 36.0969C30.3498 38.5572 28.9634 41.8914 28.9541 45.3708V318.93C28.9608 322.406 30.3467 325.739 32.8074 328.194C35.2686 330.65 38.604 332.029 42.0808 332.028H234.754H234.766C236.378 332.038 237.978 331.73 239.472 331.123C240.472 330.717 241.613 331.199 242.019 332.199C242.425 333.199 241.943 334.339 240.943 334.745C238.975 335.544 236.87 335.949 234.746 335.937C234.745 335.937 234.743 335.937 234.741 335.937H42.0822C42.082 335.937 42.0825 335.937 42.0822 335.937C37.5696 335.938 33.2402 334.149 30.046 330.962C26.8514 327.773 25.0526 323.449 25.0446 318.936V45.3683V45.3634C25.0558 40.8496 26.8539 36.524 30.0456 33.3323C33.2373 30.1406 37.5629 28.3426 42.0766 28.3313Z" fill="#0B0B5F"/>
<path d="M229.598 39.5032H47.2401C39.7992 39.5032 33.7671 45.5353 33.7671 52.9762V311.318C33.7671 318.758 39.7992 324.79 47.2401 324.79H229.598C237.039 324.79 243.071 318.758 243.071 311.318V52.9762C243.071 45.5353 237.039 39.5032 229.598 39.5032Z" fill="#92D5CD"/>
<path d="M226.295 61.5776H52.826C49.1041 61.5776 46.0868 64.5948 46.0868 68.3169V108.255C46.0868 111.978 49.1041 114.995 52.826 114.995H226.295C230.018 114.995 233.035 111.978 233.035 108.255V68.3169C233.035 64.5948 230.018 61.5776 226.295 61.5776Z" fill="#92D5CD"/>
<path d="M138.419 84.0753C141.47 84.0753 143.943 81.602 143.943 78.5511C143.943 75.5002 141.47 73.0269 138.419 73.0269C135.368 73.0269 132.895 75.5002 132.895 78.5511C132.895 81.602 135.368 84.0753 138.419 84.0753Z" fill="#D7E8F0"/>
<path d="M122.978 103.547C122.978 99.4528 124.605 95.526 127.5 92.6307C130.396 89.7354 134.323 88.1089 138.417 88.1089C142.512 88.1089 146.439 89.7354 149.333 92.6307C152.228 95.526 153.855 99.4528 153.855 103.547H122.978Z" fill="#D7E8F0"/>
<path d="M139.543 172.229C133.653 172.226 127.895 173.97 122.997 177.24C118.099 180.511 114.28 185.16 112.026 190.6C109.77 196.04 109.179 202.027 110.327 207.804C111.476 213.58 114.311 218.887 118.475 223.051C122.64 227.215 127.946 230.051 133.722 231.199C139.499 232.347 145.486 231.757 150.927 229.501C156.367 227.246 161.017 223.427 164.286 218.529C167.556 213.632 169.3 207.873 169.297 201.984C169.292 194.094 166.156 186.529 160.578 180.95C154.998 175.371 147.432 172.234 139.543 172.229ZM139.543 224.561C138.39 224.561 137.285 224.104 136.471 223.289C135.656 222.474 135.199 221.369 135.199 220.217C135.199 219.065 135.656 217.959 136.471 217.145C137.285 216.331 138.39 215.873 139.543 215.873C140.694 215.873 141.799 216.331 142.615 217.145C143.429 217.959 143.887 219.065 143.887 220.217C143.887 221.369 143.429 222.474 142.615 223.289C141.799 224.104 140.694 224.561 139.543 224.561ZM145.056 191.081C144.122 197.529 143.334 204.328 141.438 210.597C140.974 212.087 138.143 212.087 137.658 210.597C136.3 205.879 135.257 201.074 134.537 196.217C133.954 192.685 131.885 186.972 133.867 183.527C135.589 180.464 140.488 180.087 143.317 181.69C146.833 183.71 145.461 187.895 145.056 191.103V191.081Z" fill="#D7E8F0"/>
<path fill-rule="evenodd" clip-rule="evenodd" d="M210.147 140.796H64.784V136.887H210.147V140.796Z" fill="white"/>
<path fill-rule="evenodd" clip-rule="evenodd" d="M210.147 155.1H64.784V151.19H210.147V155.1Z" fill="white"/>
<path fill-rule="evenodd" clip-rule="evenodd" d="M210.147 247.24H64.784V243.331H210.147V247.24Z" fill="white"/>
<path fill-rule="evenodd" clip-rule="evenodd" d="M176.379 260.775H98.549V256.866H176.379V260.775Z" fill="white"/>
<path d="M80.227 347.438C80.227 347.438 106.093 244.655 186.656 219.551L219.401 211.737C219.401 211.737 224.58 188.608 222.673 186.178C220.768 183.748 216.853 178.77 209.681 179.85C202.51 180.93 183.972 181.275 179.225 158.612C174.478 135.947 192.018 82.0772 237.599 74.0204C283.181 65.9635 284.244 99.4328 284.244 99.4328L250.764 177.015L255.959 239.601L256.613 332.832L80.227 347.438Z" fill="white"/>
<path d="M358.625 268.038C358.085 268.195 351.194 270.198 348.483 274.971C347.967 273.879 347.151 272.955 346.13 272.308C345.109 271.662 343.925 271.319 342.717 271.32H261.798C260.358 271.318 258.96 271.804 257.832 272.7C256.705 273.596 255.916 274.848 255.593 276.251L239.658 344.577C238.578 344.366 237.498 344.237 236.374 344.129L198.768 334.744C197.156 334.339 195.449 334.55 193.984 335.336C192.518 336.121 191.397 337.425 190.842 338.994C190.591 339.697 190.466 340.439 190.474 341.186C190.474 342.882 191.117 344.515 192.274 345.756C193.43 346.996 195.015 347.752 196.706 347.871L214.489 349.016C197.359 357.078 176.521 372.435 159.128 386.546C142.203 360.048 158.085 333.555 170.03 319.289C168.491 303.565 160.694 267.054 121.786 268.049C135.189 250.86 151.902 236.129 172.611 226.269C243.546 304.893 324.697 240.611 326.419 239.229C338.555 247.144 349.415 256.863 358.625 268.049" fill="#0B0B5F"/>
<path d="M351.255 493.584V507.171H116.998V487.925C126.123 488.465 135.724 486.305 144.457 482.368C155.51 477.336 165.058 469.517 173.223 460.596C181.619 451.362 186.231 438.558 191.583 427.423C199.618 410.657 210.261 398.712 227.152 393.652L226.072 398.296C225.855 399.23 225.852 400.203 226.062 401.139C226.273 402.075 226.692 402.952 227.288 403.704C227.884 404.456 228.643 405.064 229.507 405.482C230.37 405.9 231.316 406.118 232.277 406.121H313.601C311.981 420.161 305.149 496.841 351.255 493.601" fill="#0B0B5F"/>
<path d="M313.638 136.259C313.572 143.524 312.626 150.753 310.818 157.789C309.994 161.125 308.225 164.152 305.723 166.507C303.222 168.862 300.093 170.446 296.714 171.068C296.579 166.164 294.494 161.861 291.314 159.188C291.604 155.037 291.563 150.869 291.19 146.724C290.979 143.987 290.65 141.433 290.304 139.138C290.099 137.831 289.801 136.541 289.414 135.277C288.328 134.11 287.048 133.14 285.634 132.409C280.628 129.59 270.324 126.593 251.235 130.999C248.118 131.713 245.186 133.073 242.628 134.99C242.571 135.025 242.52 135.069 242.476 135.12C240.754 136.708 238.561 138.716 236.294 139.758C233.944 140.838 231.493 140.882 229.435 138.328C229.381 138.273 229.354 138.225 229.306 138.171C228.226 136.762 227.194 134.931 225.289 134.569C221.27 133.814 219.316 137.809 218.809 141.168C218.365 144.273 219.278 147.011 220.612 149.618C221.729 151.739 223.188 153.661 224.932 155.305C225.38 155.737 225.789 156.207 226.158 156.709C225.99 156.738 225.825 156.783 225.666 156.844C225.297 156.968 224.936 157.116 224.586 157.287C219.726 159.473 216.265 164.955 216.189 171.37C216.189 171.57 208.04 171.451 207.009 171.37C203.035 171.003 199.12 169.859 196.323 166.861C188.384 158.356 188.423 145.736 191.684 135.865C194.773 126.496 198.704 117.348 203.855 108.919C215.018 90.6779 232.335 77.221 254.259 76.0114C259.517 75.747 264.788 76.0548 269.979 76.9294C272.434 77.3165 274.864 77.8576 277.253 78.5494C299.603 88.3019 313.788 110.409 313.659 136.259" fill="#0B0B5F"/>
<path d="M300.692 344.214C298.051 350.991 291.766 354.868 286.652 352.854C281.539 350.84 279.53 343.755 282.165 336.978C284.801 330.201 291.091 326.318 296.205 328.338C301.319 330.357 303.333 337.442 300.692 344.219" fill="#92D5CD"/>
<path fill-rule="evenodd" clip-rule="evenodd" d="M378.295 481.146C372.395 488.838 365.441 494.055 357.676 495.557C342.699 498.449 332.112 494.081 324.898 485.696C317.817 477.465 314.158 465.569 312.346 453.635C310.526 441.652 310.53 429.358 310.982 420.09C311.208 415.449 311.547 411.551 311.83 408.81C311.972 407.439 312.099 406.357 312.191 405.615C312.239 405.244 312.276 404.957 312.302 404.763C312.315 404.665 312.325 404.591 312.332 404.54L312.341 404.481L312.343 404.466V404.461C312.343 404.461 312.344 404.459 314.279 404.737C316.214 405.014 316.214 405.014 316.214 405.014L316.212 405.029L316.204 405.078C316.202 405.101 316.197 405.13 316.193 405.164C316.188 405.199 316.182 405.238 316.177 405.283C316.152 405.467 316.116 405.74 316.071 406.099C315.981 406.815 315.857 407.87 315.719 409.211C315.441 411.895 315.109 415.721 314.887 420.28C314.441 429.413 314.446 441.422 316.212 453.048C317.984 464.725 321.496 475.747 327.862 483.146C334.093 490.389 343.228 494.365 356.935 491.717C363.435 490.461 369.637 486.01 375.194 478.766C380.742 471.533 385.531 461.656 389.219 449.884C396.595 426.345 399.468 395.539 395.444 363.998C387.394 300.917 351.886 235.486 270.416 219.018L271.191 215.187C354.874 232.102 391.144 299.422 399.322 363.503C403.411 395.546 400.51 426.924 392.95 451.053C389.171 463.115 384.203 473.444 378.295 481.146Z" fill="#0B0B5F"/>
<path fill-rule="evenodd" clip-rule="evenodd" d="M178.702 306.99C178.702 306.99 178.703 306.988 179.963 308.483C181.223 309.977 181.224 309.977 181.224 309.977L181.219 309.98L181.199 309.997C181.18 310.014 181.149 310.04 181.11 310.074C181.028 310.144 180.907 310.251 180.746 310.392C180.427 310.677 179.955 311.103 179.361 311.66C178.173 312.777 176.494 314.423 174.555 316.519C170.67 320.719 165.762 326.702 161.629 333.858C153.351 348.191 148.354 366.866 160.264 385.508L156.97 387.614C143.937 367.214 149.612 346.849 158.243 331.904C162.565 324.42 167.671 318.204 171.685 313.864C173.696 311.692 175.439 309.982 176.684 308.812C177.307 308.226 177.806 307.776 178.152 307.469C178.325 307.315 178.459 307.197 178.552 307.117C178.6 307.077 178.635 307.046 178.66 307.024L178.69 306.999L178.698 306.992L178.702 306.99Z" fill="#0B0B5F"/>
<path fill-rule="evenodd" clip-rule="evenodd" d="M292.329 364.716C293.341 364.92 294.356 365.335 295.151 365.903L295.163 365.911L295.174 365.92C299.75 369.297 304.859 371.884 310.288 373.575C311.224 373.861 312.168 374.131 313.122 374.384L313.129 374.386L313.136 374.388C313.399 374.459 313.671 374.551 313.896 374.629C313.943 374.646 313.989 374.661 314.033 374.677C314.221 374.741 314.388 374.8 314.557 374.853C315.013 374.999 315.191 375.012 315.202 375.014L315.441 378.915C314.647 378.965 313.855 378.733 313.371 378.578C313.045 378.475 312.827 378.398 312.649 378.335C312.453 378.266 312.304 378.213 312.114 378.161C311.112 377.896 310.12 377.613 309.137 377.311L309.13 377.309C303.288 375.49 297.791 372.708 292.867 369.077C292.58 368.874 292.098 368.658 291.556 368.549C290.993 368.435 290.59 368.481 290.396 368.556L290.382 368.561L290.366 368.566C289.962 368.716 289.606 368.969 289.332 369.303C289.061 369.636 288.885 370.034 288.819 370.459C288.699 371.298 288.919 372.236 289.484 373.234C290.05 374.236 290.905 375.19 291.841 375.971L291.844 375.973C294.342 378.063 296.796 379.866 299.595 381.024C302.467 382.177 305.43 383.088 308.454 383.749L308.466 383.751L308.479 383.755C309.064 383.891 309.654 384.005 310.284 384.127C310.373 384.144 310.46 384.161 310.55 384.178C311.266 384.318 312.029 384.47 312.795 384.667L311.823 388.454C311.179 388.289 310.516 388.155 309.803 388.016C309.717 388 309.631 387.982 309.543 387.966C308.924 387.845 308.264 387.718 307.608 387.565C304.372 386.858 301.203 385.883 298.129 384.648L298.119 384.645L298.111 384.641C294.747 383.251 291.923 381.136 289.337 378.972C288.13 377.966 286.931 376.663 286.08 375.158C285.229 373.653 284.668 371.835 284.951 369.89L284.952 369.885L284.953 369.879C285.122 368.761 285.589 367.707 286.304 366.831C287.017 365.959 287.949 365.292 289.006 364.902C290.126 364.475 291.337 364.516 292.329 364.716Z" fill="#0B0B5F"/>
<path fill-rule="evenodd" clip-rule="evenodd" d="M331.863 359.136C332.129 356.288 331.743 353.308 331.17 350.28L335.011 349.552C335.603 352.679 336.072 356.093 335.755 359.497C335.755 359.497 335.755 359.499 335.755 359.5L333.809 359.317L335.755 359.497C335.622 360.947 335.286 362.674 334.475 364.183C333.642 365.734 332.262 367.117 330.131 367.595C330.144 367.592 330.158 367.589 330.172 367.585L329.672 365.695L330.089 367.605C330.104 367.602 330.117 367.599 330.131 367.595C329.378 367.79 328.599 367.86 327.824 367.802C327.829 367.803 327.835 367.803 327.84 367.803L327.956 365.851L327.805 367.801C327.812 367.802 327.818 367.802 327.824 367.802C316.286 367.119 306.808 363.106 296.17 355.416C293.876 353.757 292.378 353.757 291.542 354.067C290.654 354.396 289.841 355.317 289.432 356.814C288.586 359.921 289.871 363.751 293.343 364.872L292.141 368.592C286.087 366.636 284.445 360.245 285.66 355.787C286.282 353.502 287.748 351.303 290.183 350.401C292.67 349.48 295.541 350.136 298.461 352.247C308.673 359.63 317.454 363.274 328.07 363.9L328.087 363.901L328.105 363.903C328.464 363.931 328.825 363.898 329.173 363.805L329.213 363.794L329.255 363.786C330.043 363.613 330.599 363.138 331.031 362.332C331.492 361.475 331.752 360.335 331.862 359.139L331.863 359.136Z" fill="#0B0B5F"/>
<path fill-rule="evenodd" clip-rule="evenodd" d="M293.821 377.54C292.443 376.1 290.55 374.882 288.589 375.709C287.665 376.099 287.077 376.835 286.726 377.545C286.375 378.255 286.198 379.055 286.133 379.836C286.004 381.399 286.297 383.213 287.012 384.876C287.559 386.147 288.387 387.41 289.548 388.407C288.783 391.058 289.723 393.923 290.832 395.788C292.208 398.116 294.478 399.788 296.517 400.907C301.882 403.914 308.047 405.66 313.897 406.696C315.131 406.948 316.394 407.03 317.65 406.936L317.359 403.037C316.455 403.105 315.548 403.045 314.661 402.862L314.632 402.856L314.605 402.851C308.984 401.857 303.274 400.214 298.421 397.493L298.413 397.489L298.405 397.484C296.645 396.519 295.064 395.266 294.196 393.797L294.194 393.792C293.549 392.71 293.184 391.493 293.183 390.454C293.2 390.46 293.22 390.466 293.243 390.474C293.251 390.477 293.26 390.479 293.268 390.483C293.322 390.501 293.399 390.527 293.482 390.553C298.248 392.631 303.284 394.003 308.107 395.318C308.398 395.397 308.688 395.476 308.975 395.554L310.097 391.81C305.017 390.15 299.952 388.518 294.852 386.885L294.825 386.873L294.806 386.869C294.424 386.708 294.065 386.55 293.693 386.373L293.65 386.353L293.607 386.335C293.489 386.286 293.368 386.242 293.246 386.203L292.726 385.895L292.722 385.893C291.802 385.351 291.08 384.438 290.603 383.332C290.125 382.218 289.956 381.044 290.029 380.158C290.052 379.88 290.096 379.662 290.145 379.502C290.332 379.621 290.612 379.842 290.997 380.245L291.002 380.249C291.284 380.542 291.582 380.819 291.896 381.077L294.383 378.061C294.186 377.898 293.998 377.725 293.821 377.54ZM289.869 379.367C289.855 379.366 289.848 379.364 289.848 379.363C289.848 379.362 289.855 379.363 289.869 379.367Z" fill="#0B0B5F"/>
<path fill-rule="evenodd" clip-rule="evenodd" d="M346.198 361.142C345.589 352.94 344.067 347.695 342.077 344.414L346.198 361.142ZM342.077 344.414C340.027 341.032 337.453 339.711 335.051 339.547L342.077 344.414ZM334.784 343.447C335.774 343.515 337.265 344.019 338.734 346.44L334.784 343.447ZM338.734 346.44C340.261 348.961 341.71 353.495 342.3 361.432L338.734 346.44ZM365.493 416.368C365.493 416.366 365.493 416.366 363.807 417.356C362.122 418.345 362.122 418.345 362.121 418.344L362.106 418.319L362.066 418.25C362.03 418.19 361.979 418.101 361.913 417.984C361.78 417.752 361.586 417.41 361.34 416.968C360.847 416.082 360.144 414.794 359.294 413.167C357.596 409.915 355.313 405.307 352.969 399.876C348.295 389.05 343.304 374.797 342.3 361.435V361.432M365.448 416.289C365.416 416.235 365.369 416.151 365.306 416.042L365.448 416.289ZM365.306 416.042C365.181 415.822 364.994 415.494 364.756 415.066L365.306 416.042ZM364.756 415.066C364.278 414.209 363.591 412.951 362.76 411.358L364.756 415.066ZM362.76 411.358C361.096 408.172 358.857 403.651 356.558 398.326L362.76 411.358ZM356.558 398.326C351.943 387.636 347.154 373.856 346.198 361.142L356.558 398.326Z" fill="#0B0B5F"/>
<path fill-rule="evenodd" clip-rule="evenodd" d="M256.118 271.163C257.591 269.993 259.417 269.357 261.299 269.358L261.297 271.313V269.358H261.299H342.223C343.466 269.359 344.693 269.638 345.815 270.173C346.936 270.71 347.924 271.49 348.704 272.457C349.484 273.425 350.039 274.555 350.326 275.764C350.614 276.974 350.627 278.232 350.365 279.448L335.006 350.329V350.33L331.583 366.104L327.762 365.275L331.186 349.502L346.543 278.624L348.454 279.035L346.544 278.621C346.682 277.977 346.675 277.31 346.523 276.669C346.37 276.027 346.076 275.426 345.661 274.913C345.248 274.4 344.723 273.985 344.128 273.701C343.533 273.417 342.882 273.269 342.222 273.269H261.296C260.299 273.267 259.331 273.604 258.55 274.224C257.77 274.845 257.222 275.712 256.998 276.683L241.062 345.019L229.431 394.874L227.527 394.434L229.43 394.877L228.351 399.542L226.447 399.104L228.351 399.545V399.543C228.203 400.192 228.202 400.865 228.348 401.514C228.495 402.164 228.787 402.771 229.2 403.292C229.614 403.814 230.14 404.235 230.739 404.526C231.338 404.816 231.996 404.967 232.661 404.968H232.657V406.924L232.661 404.968H313.975V408.879H232.651C231.399 408.875 230.163 408.59 229.036 408.044C227.907 407.498 226.917 406.704 226.139 405.724C225.36 404.743 224.811 403.599 224.535 402.378C224.258 401.155 224.26 399.888 224.541 398.666L225.621 393.993L237.254 344.131L253.189 275.804L255.093 276.243L253.19 275.8L253.189 275.802C253.612 273.969 254.645 272.333 256.118 271.163Z" fill="#0B0B5F"/>
<path d="M229.336 136.529C229.336 136.529 233.619 118.369 257.8 115.961C281.981 113.553 288.04 131.621 288.04 131.621L287.279 133.44C287.279 133.44 255.489 120.686 237.934 138.889C237.934 138.889 231.61 141.757 229.336 136.54" fill="#92D5CD"/>
<path fill-rule="evenodd" clip-rule="evenodd" d="M195.173 332.708C196.35 332.503 197.558 332.546 198.718 332.833L198.722 332.834L236.333 342.231L235.385 346.024L197.778 336.629L197.776 336.628C197.143 336.472 196.484 336.449 195.841 336.56C195.198 336.671 194.584 336.916 194.041 337.277C193.497 337.638 193.034 338.109 192.681 338.659C192.329 339.209 192.095 339.826 191.994 340.471C191.893 341.117 191.927 341.776 192.095 342.407C192.263 343.038 192.559 343.628 192.968 344.138C193.375 344.649 193.884 345.068 194.463 345.371C195.041 345.674 195.675 345.853 196.326 345.898H196.328L214.107 347.069L213.85 350.969L196.064 349.798C194.872 349.717 193.709 349.389 192.649 348.835C191.59 348.28 190.658 347.512 189.912 346.578C189.167 345.644 188.624 344.565 188.316 343.409C188.01 342.255 187.946 341.049 188.132 339.868C188.316 338.687 188.744 337.556 189.39 336.55C190.034 335.543 190.881 334.683 191.877 334.021C192.872 333.359 193.995 332.912 195.173 332.708Z" fill="#0B0B5F"/>
<path fill-rule="evenodd" clip-rule="evenodd" d="M324.704 237.68C324.704 237.68 324.702 237.681 325.933 239.2C327.163 240.718 327.161 240.72 327.161 240.72L327.157 240.724L327.142 240.736L327.092 240.776C327.048 240.812 326.984 240.862 326.901 240.927C326.734 241.057 326.49 241.246 326.172 241.488C325.534 241.969 324.596 242.66 323.381 243.507C320.952 245.202 317.411 247.524 312.941 250.057C304.006 255.118 291.317 261.041 276.331 264.445C246.252 271.28 207.035 267.92 170.651 227.576L173.555 224.957C208.85 264.095 246.548 267.203 275.465 260.633C289.977 257.335 302.306 251.589 311.014 246.655C315.364 244.191 318.802 241.935 321.145 240.301C322.316 239.484 323.214 238.823 323.815 238.368C324.114 238.141 324.34 237.967 324.49 237.849C324.564 237.791 324.619 237.747 324.655 237.719L324.694 237.688L324.701 237.681L324.704 237.68Z" fill="#0B0B5F"/>
<path fill-rule="evenodd" clip-rule="evenodd" d="M161.065 286.326C168.318 297.682 170.692 311.108 171.473 319.087L167.582 319.468C166.824 311.723 164.533 299.02 157.77 288.43C151.086 277.966 140.014 269.501 121.308 269.991L121.206 266.083C141.439 265.553 153.732 274.846 161.065 286.326Z" fill="#0B0B5F"/>
<path fill-rule="evenodd" clip-rule="evenodd" d="M357.615 266.141C357.615 266.141 357.616 266.141 358.135 268.026C358.654 269.91 358.654 269.91 358.654 269.91L358.649 269.911C358.64 269.915 358.625 269.919 358.603 269.924C358.56 269.938 358.492 269.958 358.401 269.987C358.22 270.044 357.95 270.133 357.613 270.255C356.939 270.501 356.011 270.876 355.006 271.391C352.941 272.451 350.808 273.973 349.682 275.949L346.285 274.013C347.972 271.053 350.915 269.097 353.221 267.913C354.404 267.307 355.487 266.869 356.276 266.581C356.672 266.437 356.997 266.33 357.228 266.257C357.343 266.221 357.435 266.193 357.501 266.174C357.534 266.164 357.56 266.156 357.58 266.151L357.603 266.144L357.612 266.142L357.615 266.141Z" fill="#0B0B5F"/>
<path fill-rule="evenodd" clip-rule="evenodd" d="M408.798 509.936H60.0057V506.026H408.798V509.936Z" fill="#0B0B5F"/>
<path d="M291.312 159.21C294.601 161.975 296.712 166.489 296.712 171.597C296.712 180.076 290.821 186.934 283.542 186.934C282.719 186.929 281.898 186.834 281.095 186.648C289.574 180.168 291.29 159.21 291.29 159.21" fill="#92D5CD"/>
<path fill-rule="evenodd" clip-rule="evenodd" d="M226.578 135.888C233.841 121.276 251.35 110.375 270.575 114.719C280.759 117.005 288.397 125.022 291.312 134.738L291.395 135.012V135.054C291.745 136.306 292.018 137.578 292.215 138.864C293.469 146.948 294.355 158.563 291.831 169.495C289.292 180.484 283.251 190.959 270.57 196.255L270.56 196.259L270.55 196.263C266.062 198.08 261.239 198.923 256.401 198.737C251.563 198.55 246.821 197.338 242.485 195.181L244.227 191.68C248.066 193.591 252.268 194.665 256.553 194.829C260.833 194.995 265.1 194.25 269.073 192.643C280.242 187.975 285.671 178.788 288.021 168.616C290.384 158.386 289.574 147.339 288.351 139.461L288.35 139.455C288.166 138.245 287.902 137.046 287.562 135.869L287.485 135.604V135.592C284.866 127.181 278.266 120.451 269.718 118.533H269.715C252.48 114.638 236.651 124.408 230.078 137.628L226.578 135.888Z" fill="#0B0B5F"/>
<path fill-rule="evenodd" clip-rule="evenodd" d="M250.849 129.116C278.565 122.727 288.721 131.547 290.899 134L291.391 134.556V135.325H290.078C289.955 135.411 289.819 135.506 289.668 135.611C288.067 136.732 288.067 136.732 288.068 136.732L288.069 136.734L288.07 136.737L288.074 136.741L288.078 136.747L288.082 136.753C288.082 136.753 288.079 136.747 288.07 136.737C288.054 136.716 288.02 136.674 287.968 136.615L287.666 136.271C285.708 134.335 276.569 127.199 251.725 132.926L251.721 132.927C248.873 133.578 246.194 134.821 243.857 136.575L243.762 136.647L243.657 136.707C243.727 136.666 243.792 136.62 243.853 136.569C243.89 136.536 243.926 136.501 243.961 136.463L241.081 133.819C241.229 133.659 241.395 133.517 241.576 133.399C244.335 131.342 247.493 129.883 250.849 129.116Z" fill="#0B0B5F"/>
<path fill-rule="evenodd" clip-rule="evenodd" d="M255.791 75.2925C233.537 73.4128 214.152 83.5442 201.245 101.595C195.448 109.707 191.017 118.804 187.518 128.221C183.311 139.551 180.556 150.925 184.962 161.911C186.539 165.844 189.14 169.892 192.449 172.929C195.752 175.963 199.646 177.894 203.868 177.894H217.297V181.804H203.868C198.395 181.804 193.601 179.296 189.803 175.809C186.01 172.324 183.098 167.767 181.334 163.367C176.342 150.918 179.603 138.305 183.852 126.859H183.854C187.438 117.212 192.015 107.787 198.065 99.3215C211.683 80.2741 232.345 69.3886 256.12 71.3968C258.212 71.5739 260.295 71.8322 262.368 72.1715L262.053 74.1006L262.365 72.171C294.266 77.3438 315.754 104.046 315.593 136.254V136.261C315.527 143.686 314.561 151.077 312.715 158.27C311.793 161.964 309.827 165.316 307.055 167.925C304.28 170.537 300.813 172.295 297.066 172.99L296.352 169.146C299.362 168.588 302.146 167.175 304.376 165.078C306.604 162.98 308.183 160.287 308.923 157.317L308.925 157.31L308.926 157.304C310.694 150.417 311.621 143.339 311.683 136.229C311.834 105.853 291.645 80.8796 261.74 76.0302L261.736 76.0298C259.763 75.7068 257.781 75.4609 255.791 75.2925Z" fill="#0B0B5F"/>
<path fill-rule="evenodd" clip-rule="evenodd" d="M220.751 141.451C220.392 143.976 221.109 146.279 222.356 148.72C223.37 150.644 224.696 152.387 226.28 153.877L226.294 153.889L226.307 153.902C226.829 154.412 227.308 154.964 227.741 155.551L224.593 157.869C224.289 157.456 223.952 157.069 223.586 156.711C221.691 154.924 220.104 152.836 218.891 150.531L218.885 150.52L218.88 150.51C217.463 147.74 216.357 144.571 216.881 140.893L216.882 140.886L216.884 140.881C217.162 139.011 217.861 136.806 219.202 135.119C220.617 133.336 222.799 132.113 225.657 132.648L225.662 132.649L225.666 132.65C227.186 132.943 228.264 133.812 229.042 134.651C229.543 135.19 230.052 135.884 230.449 136.424C230.605 136.637 230.744 136.825 230.858 136.971L230.862 136.977C231.659 138.01 232.391 138.363 233.002 138.467C233.665 138.579 234.475 138.445 235.463 137.995C237.513 137.064 239.585 135.144 241.416 133.449L244.072 136.317C244.008 136.378 243.942 136.439 243.874 136.502C242.185 138.069 239.718 140.356 237.082 141.555C235.674 142.195 234.046 142.61 232.35 142.322C230.605 142.027 229.057 141.035 227.769 139.37C227.51 139.036 227.3 138.747 227.11 138.486C226.791 138.05 226.527 137.687 226.177 137.309C225.698 136.794 225.317 136.565 224.931 136.491C223.763 136.272 222.955 136.679 222.263 137.55C221.495 138.516 220.97 139.985 220.751 141.451Z" fill="#0B0B5F"/>
<path fill-rule="evenodd" clip-rule="evenodd" d="M294.758 171.596C294.758 167.014 292.863 163.067 290.054 160.705L292.57 157.713C296.338 160.881 298.667 165.962 298.667 171.596C298.667 180.865 292.169 188.887 283.542 188.887H283.536H283.531C282.563 188.883 281.598 188.77 280.654 188.551L281.536 184.742C282.196 184.895 282.87 184.974 283.547 184.978C289.476 184.974 294.758 179.282 294.758 171.596Z" fill="#0B0B5F"/>
<path fill-rule="evenodd" clip-rule="evenodd" d="M281.981 142.428L281.899 144.381C281.981 142.428 281.982 142.428 281.982 142.428H281.991L282.01 142.429C282.024 142.431 282.046 142.431 282.072 142.433C282.126 142.435 282.202 142.439 282.298 142.446C282.489 142.458 282.762 142.478 283.098 142.508C283.767 142.57 284.694 142.675 285.727 142.851C287.706 143.188 290.401 143.835 292.316 145.151L290.1 148.373C288.936 147.573 286.977 147.029 285.071 146.706C284.161 146.55 283.338 146.456 282.742 146.403C282.445 146.375 282.207 146.358 282.046 146.348C282.001 146.344 281.961 146.342 281.928 146.34C278.82 146.611 276.797 147.604 275.452 148.885C274.072 150.198 273.231 151.978 272.799 154.075C271.916 158.347 272.822 163.439 273.671 166.879L273.672 166.884C274.103 168.651 274.013 170.369 272.97 171.677C271.951 172.955 270.427 173.33 269.175 173.381C266.701 173.482 263.78 172.405 262.043 171.237L264.224 167.993C265.435 168.807 267.549 169.534 269.015 169.474C269.734 169.445 269.906 169.249 269.913 169.241C269.919 169.233 269.969 169.17 269.993 168.973C270.021 168.754 270.013 168.383 269.875 167.813C269.006 164.292 267.899 158.469 268.969 153.284C269.514 150.65 270.642 148.064 272.756 146.054C274.886 144.025 277.845 142.744 281.742 142.433L281.861 142.423L281.981 142.428Z" fill="#0B0B5F"/>
<path fill-rule="evenodd" clip-rule="evenodd" d="M267.549 179.524C267.548 179.525 267.548 179.525 268.463 181.252C269.38 182.979 269.379 182.98 269.378 182.98L269.375 182.981L269.371 182.983L269.36 182.989L269.33 183.004C269.306 183.016 269.276 183.032 269.238 183.05C269.164 183.086 269.063 183.134 268.936 183.19C268.685 183.299 268.333 183.442 267.903 183.582C267.051 183.861 265.838 184.153 264.461 184.155C263.072 184.158 261.481 183.863 259.947 182.936C258.405 182.003 257.056 180.509 256.034 178.328L259.574 176.669C260.317 178.255 261.183 179.114 261.971 179.591C262.768 180.074 263.621 180.247 264.455 180.246C265.301 180.245 266.092 180.062 266.686 179.867C266.98 179.772 267.212 179.677 267.364 179.61C267.441 179.576 267.495 179.55 267.527 179.535C267.543 179.527 267.552 179.523 267.556 179.52L267.554 179.522L267.551 179.524H267.549ZM267.557 179.52C267.558 179.519 267.558 179.519 267.556 179.52H267.557Z" fill="#0B0B5F"/>
<path d="M254.005 154.548C253.73 156.94 254.664 159.008 256.095 159.176C257.526 159.343 258.908 157.556 259.189 155.148C259.47 152.739 258.525 150.693 257.099 150.525C255.674 150.358 254.281 152.145 254.005 154.548Z" fill="#0B0B5F"/>
<path d="M277.216 155.959C276.941 158.346 277.875 160.42 279.306 160.586C280.737 160.754 282.12 158.966 282.395 156.558C282.67 154.15 281.736 152.098 280.31 151.937C278.885 151.774 277.492 153.557 277.216 155.959Z" fill="#0B0B5F"/>
<path fill-rule="evenodd" clip-rule="evenodd" d="M264.769 144.842C264.769 144.843 264.77 144.844 263.13 145.908C261.49 146.971 261.491 146.972 261.492 146.975L261.493 146.976L261.495 146.98L261.499 146.985L261.503 146.991C261.503 146.991 261.499 146.985 261.493 146.976C261.477 146.955 261.448 146.916 261.403 146.86C261.313 146.748 261.162 146.576 260.953 146.38C260.532 145.982 259.89 145.5 259.018 145.169C257.382 144.548 254.47 144.281 249.94 147.205L247.819 143.92C253.178 140.462 257.389 140.367 260.407 141.514C261.862 142.067 262.928 142.869 263.634 143.534C263.989 143.867 264.258 144.171 264.444 144.403C264.537 144.518 264.611 144.617 264.665 144.692C264.692 144.729 264.714 144.761 264.732 144.787C264.74 144.8 264.748 144.811 264.755 144.821L264.764 144.834L264.767 144.84L264.769 144.842Z" fill="#0B0B5F"/>
<path fill-rule="evenodd" clip-rule="evenodd" d="M268.844 231.332V194.007H272.754V231.332H268.844Z" fill="#0B0B5F"/>
<path fill-rule="evenodd" clip-rule="evenodd" d="M235.701 346.113C230.735 345.679 225.733 346.376 221.075 348.152L221.066 348.155L221.059 348.158C219.053 348.902 216.977 349.792 214.819 350.796C197.918 358.744 177.217 373.994 159.835 388.095C149.875 396.17 141.057 403.844 134.73 409.5C131.567 412.327 129.028 414.649 127.28 416.262C126.406 417.069 125.73 417.699 125.273 418.126C125.045 418.34 124.872 418.503 124.756 418.612C124.698 418.667 124.654 418.709 124.625 418.736L124.585 418.774L124.583 418.776C124.583 418.776 124.583 418.776 123.237 417.358C121.893 415.938 121.894 415.938 121.894 415.938V415.937L121.896 415.935L121.94 415.894C121.971 415.865 122.016 415.823 122.075 415.767C122.195 415.654 122.37 415.488 122.602 415.272C123.065 414.839 123.747 414.203 124.628 413.39C126.39 411.763 128.945 409.428 132.125 406.585C138.485 400.9 147.351 393.184 157.372 385.058C174.775 370.941 195.793 355.422 213.158 347.256L213.165 347.253C215.388 346.219 217.563 345.285 219.691 344.496C224.898 342.513 230.486 341.733 236.036 342.217C237.204 342.314 238.365 342.471 239.516 342.687L238.793 346.53C237.773 346.338 236.745 346.199 235.711 346.114H235.706L235.701 346.113Z" fill="#0B0B5F"/>
<path fill-rule="evenodd" clip-rule="evenodd" d="M228.793 187.019L223.291 215.402L221.792 215.505C203.414 216.768 187.227 221.221 172.919 228.016C152.537 237.724 136.047 252.239 122.797 269.233L122.796 269.234C102.159 295.664 89.4351 328.001 82.2529 357.186C75.0645 386.395 73.4759 412.246 74.9548 425.613C76.7063 441.257 80.1336 457.597 88.6873 470.658C100.955 489.339 124.389 490.305 144.022 481.372C154.77 476.478 164.112 468.842 172.149 460.059C176.172 455.634 179.332 450.307 182.17 444.63C183.814 441.34 185.283 438.084 186.751 434.829C187.872 432.343 188.992 429.858 190.19 427.36L191.952 428.205L190.19 427.361C190.19 427.361 190.19 427.361 190.19 427.36C198.361 410.298 209.356 397.833 226.961 392.561L228.083 396.306C211.895 401.154 201.603 412.578 193.715 429.05C192.621 431.332 191.517 433.777 190.39 436.271C188.867 439.644 187.303 443.105 185.667 446.378C182.76 452.193 179.412 457.884 175.039 462.692L175.035 462.697C166.754 471.745 157.002 479.757 145.642 484.929C125.165 494.247 99.2114 493.809 85.418 472.802L85.4167 472.8C76.3452 458.949 72.8387 441.852 71.0694 426.047L71.069 426.045C69.5242 412.083 71.1972 385.75 78.4565 356.252C85.7219 326.729 98.6319 293.829 119.715 266.827C119.714 266.828 119.714 266.828 119.714 266.828L121.255 268.03L119.715 266.827C133.269 249.445 150.215 234.498 171.24 224.485H171.241C185.604 217.664 201.778 213.146 220.024 211.715L219.738 213.184L221.658 213.555L221.524 211.606C221.022 211.64 220.522 211.677 220.024 211.715L224.955 186.275L228.793 187.019Z" fill="#0B0B5F"/>
<path fill-rule="evenodd" clip-rule="evenodd" d="M349.672 507.979V494.49H353.581V507.979H349.672Z" fill="#0B0B5F"/>
<path fill-rule="evenodd" clip-rule="evenodd" d="M115.415 507.981V489.675H119.325V507.981H115.415Z" fill="#0B0B5F"/>
<path d="M242.495 171.597C242.546 175.646 241.109 179.572 238.455 182.63C236.968 183.318 235.348 183.674 233.709 183.671C226.435 183.671 220.538 176.814 220.538 168.336C220.486 164.289 221.926 160.363 224.583 157.309C226.069 156.618 227.69 156.26 229.33 156.261C236.603 156.261 242.495 163.125 242.495 171.597Z" fill="#92D5CD"/>
<path fill-rule="evenodd" clip-rule="evenodd" d="M229.34 158.216C223.425 158.216 218.14 163.915 218.14 171.597C218.14 179.28 223.425 184.979 229.34 184.979C235.254 184.979 240.539 179.28 240.539 171.597C240.539 163.915 235.254 158.216 229.34 158.216ZM214.231 171.597C214.231 162.34 220.724 154.306 229.34 154.306C237.955 154.306 244.449 162.34 244.449 171.597C244.449 180.854 237.955 188.888 229.34 188.888C220.724 188.888 214.231 180.854 214.231 171.597Z" fill="#0B0B5F"/>
<path d="M385.735 37.5753C377.63 35.1595 368.992 35.201 360.911 37.6948C352.831 40.1884 345.671 45.0223 340.338 51.5851C335.004 58.1478 331.737 66.1446 330.949 74.5644C330.161 82.9842 331.886 91.4486 335.909 98.8874C339.931 106.326 346.069 112.405 353.545 116.356C361.023 120.306 369.504 121.951 377.915 121.081C386.327 120.212 394.292 116.867 400.803 111.472C407.315 106.075 412.079 98.8696 414.495 90.7655C417.735 79.8981 416.524 68.189 411.131 58.214C405.738 48.2389 396.601 40.815 385.735 37.5753ZM364.253 109.633C363.467 109.398 362.734 109.011 362.097 108.493C361.461 107.975 360.933 107.337 360.542 106.615C360.153 105.893 359.908 105.101 359.824 104.285C359.74 103.468 359.818 102.643 360.053 101.857C360.286 101.071 360.674 100.338 361.192 99.7014C361.71 99.0646 362.348 98.5361 363.07 98.1459C364.529 97.3581 366.24 97.1818 367.828 97.6558C369.416 98.1299 370.752 99.2155 371.54 100.674C372.327 102.132 372.503 103.844 372.029 105.432C371.555 107.02 370.47 108.355 369.011 109.143C367.553 109.931 365.841 110.107 364.253 109.633ZM385.853 65.9253C385.763 66.1413 385.677 66.352 385.594 66.5572C382.09 75.1768 377.732 83.4241 372.586 91.1758C371.338 93.0658 367.428 91.8995 367.417 89.6315C367.491 82.5833 368.032 75.5478 369.037 68.5713C369.664 63.4738 369.178 54.7473 373.298 50.827C376.954 47.317 383.85 48.8236 387.101 52.1932C390.692 55.9353 387.582 61.816 385.838 65.9253H385.853Z" fill="#D7E8F0"/>
<path d="M415.316 282.746C412.349 285.763 410.343 289.591 409.553 293.748C408.762 297.904 409.222 302.201 410.874 306.097C412.526 309.992 415.296 313.31 418.834 315.63C422.371 317.95 426.518 319.17 430.749 319.133C434.98 319.097 439.105 317.806 442.601 315.426C446.099 313.045 448.812 309.68 450.397 305.757C451.982 301.835 452.369 297.53 451.506 293.388C450.644 289.246 448.573 285.453 445.556 282.487C441.51 278.513 436.052 276.308 430.382 276.356C424.711 276.404 419.292 278.704 415.316 282.746ZM442.143 309.115C441.561 309.706 440.768 310.042 439.94 310.049C439.11 310.057 438.312 309.734 437.721 309.152C437.129 308.571 436.792 307.778 436.785 306.948C436.779 306.12 437.101 305.321 437.682 304.73C437.971 304.437 438.313 304.203 438.691 304.043C439.069 303.883 439.475 303.798 439.886 303.795C440.296 303.792 440.704 303.869 441.085 304.022C441.465 304.177 441.812 304.404 442.105 304.692C442.398 304.979 442.631 305.323 442.791 305.7C442.951 306.079 443.036 306.485 443.04 306.896C443.044 307.306 442.966 307.713 442.812 308.094C442.658 308.475 442.431 308.822 442.143 309.115ZM427.757 289.431C430.603 293.157 433.697 296.991 435.933 301.117C436.473 302.11 435.041 303.569 434.037 303.04C430.935 301.358 427.95 299.472 425.101 297.391C422.995 295.922 419.02 294.091 418.253 291.354C417.556 288.913 419.836 286.219 422.087 285.57C424.852 284.782 426.321 287.606 427.757 289.431Z" fill="#92D5CD"/>
<path d="M499.175 111.43C501.305 108.809 502.612 105.615 502.927 102.252C503.242 98.8884 502.553 95.5071 500.947 92.5355C499.341 89.5638 496.889 87.1351 493.902 85.5566C490.916 83.978 487.529 83.3205 484.168 83.6671C480.809 84.0137 477.627 85.3489 475.025 87.5037C472.423 89.6587 470.52 92.5366 469.554 95.7735C468.588 99.0105 468.604 102.461 469.599 105.689C470.594 108.917 472.524 111.778 475.145 113.909C476.886 115.324 478.888 116.383 481.038 117.024C483.187 117.665 485.442 117.877 487.674 117.648C489.905 117.417 492.07 116.75 494.043 115.683C496.016 114.616 497.76 113.171 499.175 111.43ZM475.863 92.4818C476.07 92.2272 476.325 92.0158 476.614 91.8597C476.901 91.7036 477.218 91.6058 477.544 91.572C477.87 91.5382 478.2 91.569 478.515 91.6625C478.829 91.756 479.122 91.9105 479.376 92.1173C479.631 92.324 479.842 92.5788 479.999 92.8673C480.154 93.1556 480.252 93.4719 480.286 93.7981C480.319 94.1243 480.288 94.454 480.195 94.7683C480.102 95.0826 479.947 95.3754 479.741 95.6299C479.322 96.1441 478.719 96.4713 478.059 96.5397C477.401 96.6081 476.742 96.412 476.227 95.9944C475.714 95.577 475.387 94.9724 475.317 94.3136C475.249 93.6549 475.446 92.9959 475.863 92.4818ZM488.786 107.062C486.243 104.313 483.504 101.516 481.403 98.3839C480.896 97.6334 481.943 96.3698 482.764 96.7154C485.366 97.8241 487.889 99.1048 490.319 100.549C492.101 101.559 495.401 102.709 496.216 104.837C496.95 106.722 495.341 109.038 493.597 109.697C491.443 110.529 490.06 108.396 488.786 107.029V107.062Z" fill="#92D5CD"/>
<path d="M329.401 224.042C335.427 234.302 335.151 241.607 333.586 253.45C332.959 257.959 337.814 261.01 341.751 258.742C376.531 238.762 408.996 254.562 450.469 244.767C465.696 241.192 484.683 233.783 497.697 221.871C502.016 215.459 504.323 207.904 504.323 200.173C504.323 167.773 460.043 141.47 405.432 141.47C370.436 141.47 339.687 152.27 322.111 168.54C322.111 168.54 322.111 168.54 322.062 168.589C317.601 175.269 315.15 182.569 315.15 190.189C315.123 201.815 323.768 214.419 329.401 224.042Z" fill="#D7E8F0"/>
<path fill-rule="evenodd" clip-rule="evenodd" d="M355.746 140.886C391.252 126.159 432.313 125.86 468.289 139.289C481.64 144.278 494.894 151.438 504.098 162.774C509.044 168.859 512.874 176.951 514.32 185.294C515.767 193.637 514.853 202.405 510.059 209.641C500.761 223.683 486.649 234.135 471.324 240.488C454.222 247.588 435.478 249.897 417.121 249.352C412.345 249.217 407.56 248.894 402.819 248.576C401.264 248.47 399.714 248.366 398.171 248.268C391.893 247.873 385.683 247.59 379.49 247.839C367.098 248.339 354.614 251.179 345.105 258.549L345.1 258.554C345.004 258.627 344.905 258.704 344.804 258.782C344.068 259.352 343.174 260.044 342.226 260.582C341.119 261.21 339.758 261.737 338.187 261.656H338.185C335.626 261.525 333.83 259.867 332.816 258.007C331.807 256.159 331.412 253.871 331.7 251.809C331.967 249.905 332.629 248.132 333.212 246.58L333.226 246.542C333.826 244.94 334.343 243.562 334.575 242.147V242.142L334.576 242.136C335.114 238.961 334.272 235.831 332.632 232.636C331.122 229.694 329.035 226.875 326.936 224.042C326.733 223.769 326.531 223.495 326.329 223.222L326.328 223.221C319.511 213.974 313.527 202.998 313.322 191.045V191.028V190.183V190.176C313.407 178.597 318.968 167.589 326.826 159.402M357.244 144.497C346.966 148.767 337.182 154.255 329.647 162.109C322.311 169.752 317.31 179.843 317.231 190.198V190.994C317.42 201.713 322.817 211.868 329.474 220.9C329.679 221.177 329.887 221.458 330.098 221.743C332.163 224.528 334.445 227.607 336.11 230.851C337.96 234.452 339.162 238.465 338.432 242.784C338.137 244.584 337.501 246.279 336.941 247.767C336.918 247.829 336.895 247.892 336.872 247.953C336.271 249.556 335.77 250.939 335.573 252.351C335.397 253.604 335.652 255.043 336.248 256.135C336.837 257.215 337.597 257.712 338.387 257.752C338.942 257.78 339.549 257.605 340.299 257.181C340.985 256.791 341.641 256.285 342.403 255.697C342.504 255.619 342.607 255.539 342.712 255.457C353.128 247.386 366.543 244.449 379.334 243.933C385.735 243.675 392.109 243.969 398.417 244.367C399.997 244.466 401.571 244.573 403.14 244.678C407.861 244.997 412.54 245.312 417.235 245.444H417.238C435.211 245.979 453.372 243.708 469.825 236.877H469.826C484.569 230.766 498.006 220.762 506.799 207.482H506.8C510.893 201.304 511.797 193.625 510.468 185.961C509.139 178.296 505.599 170.818 501.064 165.239L501.063 165.238C492.492 154.683 479.986 147.834 466.921 142.952C431.844 129.857 391.808 130.162 357.244 144.497ZM355.745 140.886C345.222 145.258 334.886 151.001 326.826 159.402L355.745 140.886Z" fill="#0B0B5F"/>
<path d="M461.047 203.095C468.58 203.095 474.687 196.988 474.687 189.454C474.687 181.921 468.58 175.814 461.047 175.814C453.513 175.814 447.406 181.921 447.406 189.454C447.406 196.988 453.513 203.095 461.047 203.095Z" fill="white"/>
<path d="M416.929 203.095C424.463 203.095 430.57 196.988 430.57 189.454C430.57 181.921 424.463 175.814 416.929 175.814C409.397 175.814 403.289 181.921 403.289 189.454C403.289 196.988 409.397 203.095 416.929 203.095Z" fill="white"/>
<path d="M371.951 203.095C379.485 203.095 385.592 196.988 385.592 189.454C385.592 181.921 379.485 175.814 371.951 175.814C364.418 175.814 358.311 181.921 358.311 189.454C358.311 196.988 364.418 203.095 371.951 203.095Z" fill="white"/>
</g>
</g>
<defs>
<clipPath id="clip0_3_104">
<rect width="540" height="540" fill="white" transform="translate(0 0.109863)"/>
</clipPath>
<clipPath id="clip1_3_104">
<rect width="540" height="540" fill="white" transform="translate(0 0.109863)"/>
</clipPath>
</defs>
</svg>
